<?xml version="1.0" encoding="utf-8"?>
<!-- Generator: Adobe Illustrator 27.5.0, SVG Export Plug-In . SVG Version: 6.00 Build 0)  -->
<svg version="1.1" xmlns="http://www.w3.org/2000/svg" xmlns:xlink="http://www.w3.org/1999/xlink" x="0px" y="0px"
	 viewBox="0 0 500 500" style="enable-background:new 0 0 500 500;" xml:space="preserve">
<g id="Background_Simple">
	<g>
		<path style="fill:#92E3A9;" d="M488.916,217.357c-1.794-40.591-18.417-79.301-42.841-108.813
			c-14.289-17.265-31.307-32.246-49.739-43.746c-19.129-11.936-39.938-25.322-62.627-26.754c-5.599-0.354-11.317,0.084-16.776,1.957
			c-20.9,7.174,21.549,29.013,27.108,32.228c-59.133-23.938-120.324-48.224-184.033-43.718c-12.284,0.869-24.99,2.987-35.589,10.388
			s-18.554,21.277-16.535,34.715c1.669,11.108,9.332,23.334,2.763,32.267c-1.878,2.554-4.603,4.116-7.284,5.482
			c-13.754,7.008-28.713,10.931-41.677,19.702c-20.077,13.583-33.326,37.786-39.043,62.99c-5.717,25.204-4.61,51.46-1.297,76.806
			c6.234,47.703,20.679,94.764,48.129,131.14c39.208,51.96,101.667,77.071,163.543,79.564
			c74.872,3.017,155.014-27.847,202.43-94.878c7.032-9.941,13.425-20.911,15.72-33.171c2.296-12.26-0.236-26.066-8.68-33.8
			c-2.276-2.084-5.19-4.278-5.051-7.63c0.187-4.535,5.399-6.233,9.379-7.31c26.108-7.071,40.148-40.526,41.961-70.269
			C489.128,228.766,489.167,223.043,488.916,217.357z"/>
		<path style="opacity:0.7;fill:#FFFFFF;" d="M488.916,217.357c-1.794-40.591-18.417-79.301-42.841-108.813
			c-14.289-17.265-31.307-32.246-49.739-43.746c-19.129-11.936-39.938-25.322-62.627-26.754c-5.599-0.354-11.317,0.084-16.776,1.957
			c-20.9,7.174,21.549,29.013,27.108,32.228c-59.133-23.938-120.324-48.224-184.033-43.718c-12.284,0.869-24.99,2.987-35.589,10.388
			s-18.554,21.277-16.535,34.715c1.669,11.108,9.332,23.334,2.763,32.267c-1.878,2.554-4.603,4.116-7.284,5.482
			c-13.754,7.008-28.713,10.931-41.677,19.702c-20.077,13.583-33.326,37.786-39.043,62.99c-5.717,25.204-4.61,51.46-1.297,76.806
			c6.234,47.703,20.679,94.764,48.129,131.14c39.208,51.96,101.667,77.071,163.543,79.564
			c74.872,3.017,155.014-27.847,202.43-94.878c7.032-9.941,13.425-20.911,15.72-33.171c2.296-12.26-0.236-26.066-8.68-33.8
			c-2.276-2.084-5.19-4.278-5.051-7.63c0.187-4.535,5.399-6.233,9.379-7.31c26.108-7.071,40.148-40.526,41.961-70.269
			C489.128,228.766,489.167,223.043,488.916,217.357z"/>
	</g>
</g>
<g id="Products">
	<g style="opacity:0.3;">
		<polyline style="fill:none;stroke:#000000;stroke-miterlimit:10;" points="476.801,113.331 36.872,113.331 36.872,136.898 
			479.81,136.898 		"/>
		<polyline style="fill:none;stroke:#000000;stroke-miterlimit:10;" points="456.415,185.212 36.872,185.212 36.872,208.779 
			479.81,208.779 		"/>
		<polyline style="fill:none;stroke:#000000;stroke-miterlimit:10;" points="456.415,257.092 36.872,257.092 36.872,280.66 
			479.81,280.66 		"/>
		<polyline style="fill:none;stroke:#000000;stroke-miterlimit:10;" points="456.415,328.973 36.872,328.973 36.872,352.541 
			479.81,352.541 		"/>
		<polyline style="fill:none;stroke:#000000;stroke-miterlimit:10;" points="456.415,401.445 36.872,401.445 36.872,425.012 
			479.81,425.012 		"/>
		<rect x="48.109" y="78.292" style="fill:none;stroke:#000000;stroke-miterlimit:10;" width="48.958" height="35.08"/>
		<rect x="77.199" y="78.292" style="fill:none;stroke:#000000;stroke-miterlimit:10;" width="19.868" height="35.08"/>
		<rect x="99.564" y="78.292" style="fill:none;stroke:#000000;stroke-miterlimit:10;" width="48.958" height="35.08"/>
		<rect x="128.654" y="78.292" style="fill:none;stroke:#000000;stroke-miterlimit:10;" width="19.868" height="35.08"/>
		<rect x="151.02" y="78.292" style="fill:none;stroke:#000000;stroke-miterlimit:10;" width="48.958" height="35.08"/>
		<rect x="180.11" y="78.292" style="fill:none;stroke:#000000;stroke-miterlimit:10;" width="19.868" height="35.08"/>
		<rect x="202.476" y="78.292" style="fill:none;stroke:#000000;stroke-miterlimit:10;" width="48.958" height="35.08"/>
		<rect x="231.566" y="78.292" style="fill:none;stroke:#000000;stroke-miterlimit:10;" width="19.868" height="35.08"/>
		<rect x="253.931" y="78.292" style="fill:none;stroke:#000000;stroke-miterlimit:10;" width="48.958" height="35.08"/>
		<rect x="283.021" y="78.292" style="fill:none;stroke:#000000;stroke-miterlimit:10;" width="19.868" height="35.08"/>
		<rect x="305.387" y="78.292" style="fill:none;stroke:#000000;stroke-miterlimit:10;" width="48.958" height="35.08"/>
		<rect x="334.477" y="78.292" style="fill:none;stroke:#000000;stroke-miterlimit:10;" width="19.868" height="35.08"/>
		<rect x="356.842" y="78.292" style="fill:none;stroke:#000000;stroke-miterlimit:10;" width="48.958" height="35.08"/>
		<rect x="385.933" y="78.292" style="fill:none;stroke:#000000;stroke-miterlimit:10;" width="19.868" height="35.08"/>
		<rect x="408.255" y="78.292" style="fill:none;stroke:#000000;stroke-miterlimit:10;" width="19.868" height="35.08"/>
		<rect x="430.578" y="78.292" style="fill:none;stroke:#000000;stroke-miterlimit:10;" width="19.868" height="35.08"/>
		<rect x="452.9" y="78.292" style="fill:none;stroke:#000000;stroke-miterlimit:10;" width="19.868" height="35.08"/>
		<rect x="40.669" y="157.323" style="fill:none;stroke:#000000;stroke-miterlimit:10;" width="16.105" height="28.281"/>
		<rect x="40.669" y="149.075" style="fill:none;stroke:#000000;stroke-miterlimit:10;" width="16.105" height="8.249"/>
		<rect x="59.523" y="157.323" style="fill:none;stroke:#000000;stroke-miterlimit:10;" width="16.104" height="28.281"/>
		<rect x="59.523" y="149.075" style="fill:none;stroke:#000000;stroke-miterlimit:10;" width="16.104" height="8.249"/>
		<rect x="78.377" y="157.323" style="fill:none;stroke:#000000;stroke-miterlimit:10;" width="16.104" height="28.281"/>
		<rect x="78.377" y="149.075" style="fill:none;stroke:#000000;stroke-miterlimit:10;" width="16.104" height="8.249"/>
		<rect x="97.231" y="157.323" style="fill:none;stroke:#000000;stroke-miterlimit:10;" width="16.104" height="28.281"/>
		<rect x="97.231" y="149.075" style="fill:none;stroke:#000000;stroke-miterlimit:10;" width="16.104" height="8.249"/>
		<rect x="116.085" y="157.323" style="fill:none;stroke:#000000;stroke-miterlimit:10;" width="16.104" height="28.281"/>
		<rect x="116.085" y="149.075" style="fill:none;stroke:#000000;stroke-miterlimit:10;" width="16.104" height="8.249"/>
		<rect x="134.939" y="157.323" style="fill:none;stroke:#000000;stroke-miterlimit:10;" width="16.104" height="28.281"/>
		<rect x="134.939" y="149.075" style="fill:none;stroke:#000000;stroke-miterlimit:10;" width="16.104" height="8.249"/>
		<rect x="153.793" y="157.323" style="fill:none;stroke:#000000;stroke-miterlimit:10;" width="16.104" height="28.281"/>
		<rect x="153.793" y="149.075" style="fill:none;stroke:#000000;stroke-miterlimit:10;" width="16.104" height="8.249"/>
		<rect x="172.647" y="157.323" style="fill:none;stroke:#000000;stroke-miterlimit:10;" width="16.104" height="28.281"/>
		<rect x="172.647" y="149.075" style="fill:none;stroke:#000000;stroke-miterlimit:10;" width="16.104" height="8.249"/>
		<rect x="191.501" y="157.323" style="fill:none;stroke:#000000;stroke-miterlimit:10;" width="16.104" height="28.281"/>
		<rect x="191.501" y="149.075" style="fill:none;stroke:#000000;stroke-miterlimit:10;" width="16.104" height="8.249"/>
		<rect x="210.355" y="157.323" style="fill:none;stroke:#000000;stroke-miterlimit:10;" width="16.104" height="28.281"/>
		<rect x="210.355" y="149.075" style="fill:none;stroke:#000000;stroke-miterlimit:10;" width="16.104" height="8.249"/>
		<rect x="229.209" y="157.323" style="fill:none;stroke:#000000;stroke-miterlimit:10;" width="16.104" height="28.281"/>
		<rect x="229.209" y="149.075" style="fill:none;stroke:#000000;stroke-miterlimit:10;" width="16.104" height="8.249"/>
		<rect x="248.063" y="157.323" style="fill:none;stroke:#000000;stroke-miterlimit:10;" width="16.104" height="28.281"/>
		<rect x="248.063" y="149.075" style="fill:none;stroke:#000000;stroke-miterlimit:10;" width="16.104" height="8.249"/>
		<rect x="266.917" y="157.323" style="fill:none;stroke:#000000;stroke-miterlimit:10;" width="16.105" height="28.281"/>
		<rect x="266.917" y="149.075" style="fill:none;stroke:#000000;stroke-miterlimit:10;" width="16.105" height="8.249"/>
		<rect x="285.771" y="157.323" style="fill:none;stroke:#000000;stroke-miterlimit:10;" width="16.105" height="28.281"/>
		<rect x="285.771" y="149.075" style="fill:none;stroke:#000000;stroke-miterlimit:10;" width="16.105" height="8.249"/>
		<rect x="304.625" y="157.323" style="fill:none;stroke:#000000;stroke-miterlimit:10;" width="16.105" height="28.281"/>
		<rect x="304.625" y="149.075" style="fill:none;stroke:#000000;stroke-miterlimit:10;" width="16.105" height="8.249"/>
		<rect x="323.479" y="157.323" style="fill:none;stroke:#000000;stroke-miterlimit:10;" width="16.105" height="28.281"/>
		<rect x="323.479" y="149.075" style="fill:none;stroke:#000000;stroke-miterlimit:10;" width="16.105" height="8.249"/>
		<rect x="342.333" y="157.323" style="fill:none;stroke:#000000;stroke-miterlimit:10;" width="16.104" height="28.281"/>
		<rect x="342.333" y="149.075" style="fill:none;stroke:#000000;stroke-miterlimit:10;" width="16.104" height="8.249"/>
		<rect x="361.187" y="157.323" style="fill:none;stroke:#000000;stroke-miterlimit:10;" width="16.104" height="28.281"/>
		<rect x="361.187" y="149.075" style="fill:none;stroke:#000000;stroke-miterlimit:10;" width="16.104" height="8.249"/>
		<rect x="380.041" y="157.323" style="fill:none;stroke:#000000;stroke-miterlimit:10;" width="16.104" height="28.281"/>
		<rect x="380.041" y="149.075" style="fill:none;stroke:#000000;stroke-miterlimit:10;" width="16.104" height="8.249"/>
		<rect x="398.895" y="157.323" style="fill:none;stroke:#000000;stroke-miterlimit:10;" width="16.104" height="28.281"/>
		<rect x="398.895" y="149.075" style="fill:none;stroke:#000000;stroke-miterlimit:10;" width="16.104" height="8.249"/>
		<rect x="417.749" y="157.323" style="fill:none;stroke:#000000;stroke-miterlimit:10;" width="16.104" height="28.281"/>
		<rect x="417.749" y="149.075" style="fill:none;stroke:#000000;stroke-miterlimit:10;" width="16.104" height="8.249"/>
		<g>
			<path style="fill:none;stroke:#000000;stroke-miterlimit:10;" d="M68.961,233.132H48.514c-3.682,0-6.667,2.985-6.667,6.667V256.7
				h33.78v-16.901C75.628,236.117,72.643,233.132,68.961,233.132z"/>
			<rect x="49.703" y="224.098" style="fill:none;stroke:#000000;stroke-miterlimit:10;" width="18.854" height="9.034"/>
		</g>
		<g>
			<path style="fill:none;stroke:#000000;stroke-miterlimit:10;" d="M68.961,305.798H48.514c-3.682,0-6.667,2.985-6.667,6.667
				v16.901h33.78v-16.901C75.628,308.783,72.643,305.798,68.961,305.798z"/>
			<rect x="49.703" y="296.764" style="fill:none;stroke:#000000;stroke-miterlimit:10;" width="18.854" height="9.034"/>
		</g>
		<g>
			<path style="fill:none;stroke:#000000;stroke-miterlimit:10;" d="M116.096,305.798H95.649c-3.682,0-6.667,2.985-6.667,6.667
				v16.901h33.78v-16.901C122.763,308.783,119.778,305.798,116.096,305.798z"/>
			<rect x="96.838" y="296.764" style="fill:none;stroke:#000000;stroke-miterlimit:10;" width="18.854" height="9.034"/>
		</g>
		<g>
			<path style="fill:none;stroke:#000000;stroke-miterlimit:10;" d="M163.231,305.798h-20.447c-3.682,0-6.667,2.985-6.667,6.667
				v16.901h33.78v-16.901C169.898,308.783,166.913,305.798,163.231,305.798z"/>
			<rect x="143.973" y="296.764" style="fill:none;stroke:#000000;stroke-miterlimit:10;" width="18.854" height="9.034"/>
		</g>
		<g>
			<path style="fill:none;stroke:#000000;stroke-miterlimit:10;" d="M210.366,305.798h-20.447c-3.682,0-6.667,2.985-6.667,6.667
				v16.901h33.78v-16.901C217.033,308.783,214.048,305.798,210.366,305.798z"/>
			<rect x="191.108" y="296.764" style="fill:none;stroke:#000000;stroke-miterlimit:10;" width="18.854" height="9.034"/>
		</g>
		<g>
			<path style="fill:none;stroke:#000000;stroke-miterlimit:10;" d="M257.501,305.798h-20.447c-3.682,0-6.667,2.985-6.667,6.667
				v16.901h33.78v-16.901C264.167,308.783,261.183,305.798,257.501,305.798z"/>
			<rect x="238.243" y="296.764" style="fill:none;stroke:#000000;stroke-miterlimit:10;" width="18.854" height="9.034"/>
		</g>
		<g>
			<path style="fill:none;stroke:#000000;stroke-miterlimit:10;" d="M304.636,305.798h-20.447c-3.682,0-6.667,2.985-6.667,6.667
				v16.901h33.78v-16.901C311.302,308.783,308.318,305.798,304.636,305.798z"/>
			<rect x="285.378" y="296.764" style="fill:none;stroke:#000000;stroke-miterlimit:10;" width="18.854" height="9.034"/>
		</g>
		<g>
			<path style="fill:none;stroke:#000000;stroke-miterlimit:10;" d="M351.639,305.798h-20.447c-3.682,0-6.667,2.985-6.667,6.667
				v16.901h33.78v-16.901C358.306,308.783,355.321,305.798,351.639,305.798z"/>
			<rect x="332.382" y="296.764" style="fill:none;stroke:#000000;stroke-miterlimit:10;" width="18.854" height="9.034"/>
		</g>
		<g>
			<path style="fill:none;stroke:#000000;stroke-miterlimit:10;" d="M398.774,305.798h-20.447c-3.682,0-6.667,2.985-6.667,6.667
				v16.901h33.78v-16.901C405.441,308.783,402.456,305.798,398.774,305.798z"/>
			<rect x="379.517" y="296.764" style="fill:none;stroke:#000000;stroke-miterlimit:10;" width="18.854" height="9.034"/>
		</g>
		<g>
			<path style="fill:none;stroke:#000000;stroke-miterlimit:10;" d="M445.909,305.798h-20.447c-3.682,0-6.667,2.985-6.667,6.667
				v16.901h33.78v-16.901C452.576,308.783,449.591,305.798,445.909,305.798z"/>
			<rect x="426.652" y="296.764" style="fill:none;stroke:#000000;stroke-miterlimit:10;" width="18.854" height="9.034"/>
		</g>
		<g>
			<path style="fill:none;stroke:#000000;stroke-miterlimit:10;" d="M106.669,233.132H86.222c-3.682,0-6.667,2.985-6.667,6.667
				V256.7h33.78v-16.901C113.336,236.117,110.351,233.132,106.669,233.132z"/>
			<rect x="87.411" y="224.098" style="fill:none;stroke:#000000;stroke-miterlimit:10;" width="18.854" height="9.034"/>
		</g>
		<g>
			<path style="fill:none;stroke:#000000;stroke-miterlimit:10;" d="M144.377,233.132H123.93c-3.682,0-6.667,2.985-6.667,6.667
				V256.7h33.78v-16.901C151.044,236.117,148.059,233.132,144.377,233.132z"/>
			<rect x="125.119" y="224.098" style="fill:none;stroke:#000000;stroke-miterlimit:10;" width="18.854" height="9.034"/>
		</g>
		<g>
			<path style="fill:none;stroke:#000000;stroke-miterlimit:10;" d="M182.085,233.132h-20.447c-3.682,0-6.667,2.985-6.667,6.667
				V256.7h33.78v-16.901C188.751,236.117,185.767,233.132,182.085,233.132z"/>
			<rect x="162.827" y="224.098" style="fill:none;stroke:#000000;stroke-miterlimit:10;" width="18.854" height="9.034"/>
		</g>
		<g>
			<path style="fill:none;stroke:#000000;stroke-miterlimit:10;" d="M219.793,233.132h-20.447c-3.682,0-6.667,2.985-6.667,6.667
				V256.7h33.78v-16.901C226.46,236.117,223.475,233.132,219.793,233.132z"/>
			<rect x="200.535" y="224.098" style="fill:none;stroke:#000000;stroke-miterlimit:10;" width="18.854" height="9.034"/>
		</g>
		<g>
			<path style="fill:none;stroke:#000000;stroke-miterlimit:10;" d="M257.501,233.132h-20.447c-3.682,0-6.667,2.985-6.667,6.667
				V256.7h33.78v-16.901C264.167,236.117,261.183,233.132,257.501,233.132z"/>
			<rect x="238.243" y="224.098" style="fill:none;stroke:#000000;stroke-miterlimit:10;" width="18.854" height="9.034"/>
		</g>
		<g>
			<path style="fill:none;stroke:#000000;stroke-miterlimit:10;" d="M295.209,233.132h-20.447c-3.682,0-6.667,2.985-6.667,6.667
				V256.7h33.78v-16.901C301.875,236.117,298.891,233.132,295.209,233.132z"/>
			<rect x="275.951" y="224.098" style="fill:none;stroke:#000000;stroke-miterlimit:10;" width="18.854" height="9.034"/>
		</g>
		<g>
			<path style="fill:none;stroke:#000000;stroke-miterlimit:10;" d="M332.917,233.132H312.47c-3.682,0-6.667,2.985-6.667,6.667
				V256.7h33.78v-16.901C339.583,236.117,336.599,233.132,332.917,233.132z"/>
			<rect x="313.659" y="224.098" style="fill:none;stroke:#000000;stroke-miterlimit:10;" width="18.854" height="9.034"/>
		</g>
		<g>
			<path style="fill:none;stroke:#000000;stroke-miterlimit:10;" d="M370.719,233.132h-20.447c-3.682,0-6.667,2.985-6.667,6.667
				V256.7h33.78v-16.901C377.386,236.117,374.401,233.132,370.719,233.132z"/>
			<rect x="351.462" y="224.098" style="fill:none;stroke:#000000;stroke-miterlimit:10;" width="18.854" height="9.034"/>
		</g>
		<g>
			<path style="fill:none;stroke:#000000;stroke-miterlimit:10;" d="M408.427,233.132h-20.447c-3.682,0-6.667,2.985-6.667,6.667
				V256.7h33.78v-16.901C415.094,236.117,412.109,233.132,408.427,233.132z"/>
			<rect x="389.17" y="224.098" style="fill:none;stroke:#000000;stroke-miterlimit:10;" width="18.854" height="9.034"/>
		</g>
		<g>
			<path style="fill:none;stroke:#000000;stroke-miterlimit:10;" d="M446.23,233.132h-20.447c-3.682,0-6.667,2.985-6.667,6.667
				V256.7h33.78v-16.901C452.897,236.117,449.912,233.132,446.23,233.132z"/>
			<rect x="426.973" y="224.098" style="fill:none;stroke:#000000;stroke-miterlimit:10;" width="18.854" height="9.034"/>
		</g>
		<rect x="42.786" y="378.296" style="fill:none;stroke:#000000;stroke-miterlimit:10;" width="57.938" height="22.956"/>
		<rect x="102.91" y="378.296" style="fill:none;stroke:#000000;stroke-miterlimit:10;" width="57.938" height="22.956"/>
		<rect x="163.033" y="378.296" style="fill:none;stroke:#000000;stroke-miterlimit:10;" width="57.938" height="22.956"/>
		<rect x="223.157" y="378.296" style="fill:none;stroke:#000000;stroke-miterlimit:10;" width="57.938" height="22.956"/>
		<rect x="283.281" y="378.296" style="fill:none;stroke:#000000;stroke-miterlimit:10;" width="57.938" height="22.956"/>
		<rect x="343.405" y="378.296" style="fill:none;stroke:#000000;stroke-miterlimit:10;" width="57.938" height="22.956"/>
		<rect x="404.943" y="378.296" style="fill:none;stroke:#000000;stroke-miterlimit:10;" width="57.938" height="22.956"/>
	</g>
</g>
<g id="Floor">
	<g>
		<line style="fill:none;stroke:#263238;stroke-miterlimit:10;" x1="461.937" y1="460.425" x2="17.164" y2="460.425"/>
		<line style="fill:none;stroke:#263238;stroke-miterlimit:10;" x1="478.99" y1="460.425" x2="467.394" y2="460.425"/>
	</g>
</g>
<g id="Device">
	<g>
		<g>
			<path style="fill:#263238;stroke:#263238;stroke-miterlimit:10;" d="M386.259,460.425H243.625
				c-14.196,0-25.705-11.508-25.705-25.705V74.22c0-14.196,11.508-25.705,25.705-25.705h142.634
				c14.197,0,25.705,11.508,25.705,25.705V434.72C411.964,448.917,400.456,460.425,386.259,460.425z"/>
			<path style="fill:#263238;stroke:#263238;stroke-miterlimit:10;" d="M376.794,460.425H234.16
				c-14.196,0-25.705-11.508-25.705-25.705V74.22c0-14.196,11.508-25.705,25.705-25.705h142.634
				c14.197,0,25.705,11.508,25.705,25.705V434.72C402.499,448.917,390.991,460.425,376.794,460.425z"/>
			<path style="fill:#FFFFFF;stroke:#263238;stroke-linecap:round;stroke-linejoin:round;stroke-miterlimit:10;" d="M395.733,77.172
				v354.59c0,12.29-9.96,22.25-22.25,22.25h-136.01c-1.03,0-2.04-0.07-3.03-0.21c-10.86-1.47-19.23-10.78-19.23-22.04V77.172
				c0-12.29,9.97-22.25,22.26-22.25h3.95c12.23,0,24.49,0.23,36.71-0.01c0.02,0.08-0.08,0.23-0.05,0.35
				c3.34-0.52,8.54,0.92,10.95,3.33c3.84,3.84,8.33,9.09,14.19,9.7c6.13,0.63,10.99-4.33,14.98-8.27c4.48-4.43,10.46-5.1,16.52-5.1
				h38.76C385.773,54.922,395.733,64.882,395.733,77.172z"/>
			<path style="fill:#92E3A9;stroke:#263238;stroke-linecap:round;stroke-linejoin:round;stroke-miterlimit:10;" d="M395.733,106.57
				V77.172c0-12.29-9.96-22.25-22.25-22.25h-38.76c-6.06,0-12.04,0.67-16.52,5.1c-3.99,3.94-8.85,8.9-14.98,8.27
				c-5.86-0.61-10.35-5.86-14.19-9.7c-2.41-2.41-7.61-3.85-10.95-3.33c-0.03-0.12,0.07-0.27,0.05-0.35
				c-12.22,0.24-24.48,0.01-36.71,0.01h-3.95c-12.29,0-22.26,9.96-22.26,22.25v29.398H395.733z"/>
			<path style="fill:#FFFFFF;stroke:#263238;stroke-linecap:round;stroke-linejoin:round;stroke-miterlimit:10;" d="M395.733,80.724
				v-3.552c0-12.29-9.96-22.25-22.25-22.25h-38.76c-6.06,0-12.04,0.67-16.52,5.1c-3.99,3.94-8.85,8.9-14.98,8.27
				c-5.86-0.61-10.35-5.86-14.19-9.7c-2.41-2.41-7.61-3.85-10.95-3.33c-0.03-0.12,0.07-0.27,0.05-0.35
				c-12.22,0.24-24.48,0.01-36.71,0.01h-3.95c-12.29,0-22.26,9.96-22.26,22.25v3.552H395.733z"/>
			<path style="opacity:0.09;" d="M395.733,77.172v45.21c-19.45,23.43-66.81,53.6-120.66,81.77
				c-29.15,15.26-47.93,29.64-59.86,41.06v-109.26c1.68-2.38,3.5-4.81,5.46-7.29c23.56-29.73,80.7-48.8,121.02-73.74h31.79
				C385.773,54.922,395.733,64.882,395.733,77.172z"/>
			<path style="opacity:0.09;" d="M395.733,208.862v138.14c-19.45,23.43-66.81,53.6-120.66,81.77
				c-16.74,8.76-30.06,17.23-40.63,25.03c-10.86-1.47-19.23-10.78-19.23-22.04v-71.19c1.68-2.38,3.5-4.81,5.46-7.29
				c33.02-41.67,132.03-62.41,158.19-107.71C385.893,233.402,391.693,219.612,395.733,208.862z"/>
			<circle style="fill:#7D7D7D;stroke:#FFFFFF;stroke-miterlimit:10;" cx="304.326" cy="59.766" r="3.922"/>
			<path style="fill:#787878;stroke:#263238;stroke-miterlimit:10;" d="M402.432,167.008L402.432,167.008v-51.266l0,0
				c1.94,0,3.513,1.573,3.513,3.513v44.24C405.945,165.435,404.372,167.008,402.432,167.008z"/>
			<path style="fill:#787878;stroke:#263238;stroke-miterlimit:10;" d="M402.432,211.19L402.432,211.19v-25.579l0,0
				c1.94,0,3.513,1.573,3.513,3.513v18.553C405.945,209.617,404.372,211.19,402.432,211.19z"/>
		</g>
		<g>
			<g>
				
					<rect x="360.453" y="63.207" style="fill:none;stroke:#263238;stroke-width:0.8211;stroke-linecap:round;stroke-linejoin:round;stroke-miterlimit:10;" width="16.999" height="9.322"/>
				
					<rect x="360.453" y="63.207" style="fill:#263238;stroke:#263238;stroke-width:0.7251;stroke-linecap:round;stroke-linejoin:round;stroke-miterlimit:10;" width="13.257" height="9.322"/>
				
					<rect x="377.416" y="65.815" style="fill:#263238;stroke:#263238;stroke-width:0.7251;stroke-linecap:round;stroke-linejoin:round;stroke-miterlimit:10;" width="2.395" height="4.106"/>
			</g>
			<g>
				
					<rect x="227.025" y="66.099" style="fill:#263238;stroke:#263238;stroke-width:0.8831;stroke-linecap:round;stroke-linejoin:round;stroke-miterlimit:10;" width="3.116" height="5.343"/>
				
					<rect x="231.923" y="64.223" style="fill:#263238;stroke:#263238;stroke-width:0.8831;stroke-linecap:round;stroke-linejoin:round;stroke-miterlimit:10;" width="3.117" height="7.219"/>
				
					<rect x="236.82" y="62.007" style="fill:#263238;stroke:#263238;stroke-width:0.8831;stroke-linecap:round;stroke-linejoin:round;stroke-miterlimit:10;" width="3.117" height="9.436"/>
			</g>
		</g>
		<path style="fill:#FFFFFF;stroke:#263238;stroke-linejoin:round;stroke-miterlimit:10;" d="M210.077,342.367
			c0,0,0.432,2.27,0.865,2.378c0.432,0.108,4.648-0.108,4.756-1.189c0.108-1.081-2.162-1.729-2.162-1.729L210.077,342.367z"/>
	</g>
</g>
<g id="Lines">
	<line style="fill:none;stroke:#263238;stroke-miterlimit:10;" x1="222.311" y1="225.69" x2="389.511" y2="225.69"/>
	<line style="fill:none;stroke:#263238;stroke-miterlimit:10;" x1="222.311" y1="329.449" x2="389.511" y2="329.449"/>
</g>
<g id="Vegetable_3">
	<g>
		<g>
			<g>
				<path style="fill:#92E3A9;stroke:#263238;stroke-miterlimit:10;" d="M276.283,388.396c0,0-6.158-11.85-6.996-13.389
					c-0.838-1.538,3.419-1.443,3.903-3.76c0.484-2.317-1.014-4.744-1.895-4.225c-0.881,0.519-0.253,4.532-1.622,3.603
					c-1.369-0.929-0.719-6.22,0.352-7.581c1.07-1.361,6.322-2.56,7.66-3.621c1.338-1.062,0.56-4.941-1.364-4.835
					c-1.924,0.106-2.947,3.174-4.317,4.802c-1.369,1.628-2.95-0.591-3.839,0.07c-0.889,0.661-0.944,1.652-1.283,2.628
					c-0.338,0.976-1.372-2.136-1.372-2.136s1.11-4.626-1.12-4.111c-2.231,0.515-1.952,1.88-2.231,0.515
					c-0.279-1.365,0.484-2.317-0.153-3.631c-0.637-1.314-0.421-1.373-1.396-1.711c-0.976-0.339,0.229-4.107-0.577-6.212
					c-0.806-2.105-2.659-3.274-4.712-4.667c-2.053-1.393-1.542-0.37-3.508-3.321c-1.966-2.951-4.377-6.85-5.38-5.414
					c-1.004,1.436-1.901,2.238,0.911,6.586c2.812,4.348,2.757,5.339,2.757,5.339s-1.153,1.569-0.174,3.116
					c0.979,1.546,3.555,5.028,4.582,5.725c1.027,0.697-1.507,2.828-0.961,4.492c0.547,1.664,2.112,1.609,3.139,2.306
					c1.027,0.696,1.754,1.66,1.856,2.376c0.102,0.716,0.696,1.53,1.097,1.979c0.401,0.449-2.219-0.976-1.353,1.345
					c0.865,2.321,2.993,3.647,2.993,3.647l1.003,1.121c0,0,0.255,1.79,1.557,2.644c1.302,0.854,4.114,2.644,4.114,2.644
					l7.204,13.471l-0.189,0.842L276.283,388.396z"/>
				<path style="fill:#92E3A9;stroke:#263238;stroke-miterlimit:10;" d="M243.014,368.499c0,0-4.552,1.38-6.582,2.119
					c-2.03,0.739-4.304,0.754-4.689,0.023c-0.385-0.732,1.086-1.644,1.086-1.644s0.409,0.307-1.723,0.33
					c-2.132,0.023-3.729,0.644-3.108-0.315c0.622-0.96,2.734-1.907,3.95-2.053c1.216-0.145,1.491,0.012,2.64-0.208
					c1.149-0.22-1.105-1.837-3.851-0.996c-2.746,0.841-3.781,2.843-6.035,1.226c-2.254-1.617-0.373-2.223,0.842-2.368
					c1.216-0.145,1.865-0.322,0.004-1.349c-1.861-1.027-1.239-1.987,0.445-1.609c1.684,0.378,2.486,1.275,3.796,1.987
					c1.31,0.712-6.427-4.478-3.976-3.844s2.986,1.232,4.213,2.153c1.227,0.921,3.406,2.605,4.307,3.01
					c0.901,0.405,1.51,0.937,1.735,0.736c0.224-0.201-0.432-2.439-2.705-4.981c-2.273-2.542-4.232-3.077-2.234-3.25
					c1.998-0.173,4.669,1.61,5.129,2.275c0.46,0.665,0.807-0.452,2.124,0.118c1.318,0.571,1.719,1.019,1.856,2.377
					c0.137,1.357-0.362,1.4,0.216,2.498c0.578,1.098,0.987,1.405,0.987,1.405s1.44-0.346,1.632,0.02
					c0.193,0.366,0.787,1.18,2.423,2.408c1.636,1.228,5.232,2.991,5.271,2.283c0.039-0.708,0.512-1.534-2.096-4.45
					c-2.607-2.915-3.929-4.694-2.922-4.922c1.007-0.228,0.873-0.378,0.118-2.124c-0.755-1.747,0.744-1.876,2.561,1.208
					c1.817,3.085,2.953,4.355,3.209,6.145c0.255,1.79,1.007,2.329,0.869,3.529c-0.138,1.2-0.378,1.684-0.378,1.684
					s7.242,3.884,8.477,4.663c1.235,0.779,11.005,8.995,11.005,8.995s3.158,3.23,3.359,3.455s-0.638,1.243-0.638,1.243
					s-2.918-3.714-4.747-5.308c-1.829-1.594-10.372-8.889-14.05-10.443c-3.678-1.555-4.712-2.109-4.712-2.109
					s0.865-0.236-6.106,2.501c-6.971,2.736-11.519,2.767-12.188,2.02c-0.669-0.748,2.9-4.881,5.626-4.09
					c2.726,0.791,3.619,1.338,3.717,0.847c0.099-0.492-2.879-1.865-0.13-1.499c2.75,0.366,3.308,0.54,3.875,0.571
					c0.567,0.032-0.531,0.61,0.567,0.032c1.098-0.578,2.813-0.767,2.813-0.767L243.014,368.499z"/>
				<path style="fill:#92E3A9;stroke:#263238;stroke-miterlimit:10;" d="M263.614,379.947c0,0-3.316-0.398-6.322,0.003
					c-3.006,0.401-7.463,2.638-9.477,3.094c-2.014,0.456-1.9-0.319-0.936-1.047c0.964-0.728,2.671-0.774,2.353-1.431
					c-0.318-0.657-3.407-0.048-1.471-1.645c1.936-1.597,3.415-2.651,4.552-1.38c1.137,1.271,1.18,1.771,1.963,1.743
					c0.783-0.027,1.384,0.645,1.499-0.13c0.114-0.775-2.989-2.44-0.841-2.746c2.148-0.306,2.907,0.091,3.469,1.472
					c0.562,1.381,1.42,1.287,1.42,1.287l2.99-0.117C262.812,379.05,263.512,379.231,263.614,379.947z"/>
				<path style="fill:#92E3A9;stroke:#263238;stroke-miterlimit:10;" d="M227.336,340.136c0,0-4.366-3.227-2.049-0.185
					c2.316,3.041,5.192,3.699,6.761,4.852c1.569,1.153,2.203,1.259,2.447,1.983c0.244,0.724-4.61-1.394-3.096,0.751
					s2.191,2.75,3.992,3.561c1.802,0.811,4.036,1.504,4.012,1.928c-0.024,0.425-5.94-0.473-3.486,1.368
					c2.454,1.842,3.937,1.995,5.653,1.807c1.715-0.189,3.407,0.048,3.407,0.048s0.472-0.826,1.141-0.078
					c0.669,0.747,5.278,4.698,4.979,4.966c-0.299,0.267-4.878-1.693-8.926-1.705c-4.048-0.013-9.547-0.746-7.455,2.496
					c2.092,3.242,8.52,2.606,11.95,4.786c3.43,2.18,0.641,2.522,3.241,3.022c2.6,0.5,3.348-2.726,4.544-1.238
					s0.983,2.754,1.99,2.526c1.007-0.228,1.354-1.345,2.113-0.948c0.759,0.397,1.404,1.57,2.089,2.034
					c0.684,0.464,3.984,3.703,5.121,4.974c1.137,1.271,9.207,11.949,9.207,11.949l1.314-0.637c0,0-7.673-8.88-8.861-10.509
					c-1.188-1.629-3.453-4.312-2.969-6.629c0.484-2.317,5.977-9.114,7.229-11.175c1.251-2.061,1.122-6.117-0.487-4.005
					c-1.609,2.112-2.31,4.488-2.991,5.232s0.607-5.791-1.864-4.792s-1.617,2.254-1.26,4.76c0.357,2.506,1.18,1.771,0.385,3.289
					c-0.795,1.518-1.526-0.653-2.038,0.881c-0.512,1.534-0.618,2.167-0.323,3.249c0.295,1.082,0.295,1.082,0.314,2.006
					c0.02,0.924,0.35,2.648,0.35,2.648s-9.353-10.608-9.553-10.832c-0.201-0.224-0.356-7.62,0.293-10.354
					c0.65-2.734,1.649-5.377,0.56-7.498c-1.089-2.121-2.061-3.809-2.51-0.85c-0.449,2.958,0.695,4.087,0.133,5.264
					c-0.563,1.176-2.592-3.199-3.198,0.035c-0.606,3.234,0.605,4.438,1.108,5.602c0.503,1.164-3.336-1.323-2.966-0.307
					c0.37,1.015,2.399,2.833,3.402,3.954c1.003,1.121,1.683,2.935,1.683,2.935l-6.258-6.244c0,0,2.271-6.337,0.403-9.78
					c-1.868-3.443-4.763-5.025-4.083-3.211s1.931,4.867,0.805,4.662c-1.125-0.205-3.755-7.81-5.144-7.106
					c-1.389,0.704-0.021,4.19-0.847,3.717s-1.199-2.695-2.91-3.856c-1.711-1.161-1.572,1.523-2.278,1.365
					c-1.684-0.378-3.273-2.456-3.631-2.404C228.422,338.492,227.336,340.136,227.336,340.136z"/>
			</g>
			<g>
				<path style="fill:#D4D4D4;stroke:#263238;stroke-miterlimit:10;" d="M278.396,387.448c0,0-4.387,0.963-5.508,4.523
					c-1.122,3.56,2.323,8.014,5.029,10.438c2.706,2.424,7.469,7.448,11.414,11.859c3.945,4.411,7.878,7.755,7.878,7.755
					s4.661,4.309,8.276,6.996c3.615,2.688,8.229,5.289,8.929,5.47c0.7,0.181,2.042,0.327,1.747-0.755s-5.466-11.527-7.405-13.695
					c-1.939-2.168-8.581-11.701-11.197-14.475c-2.616-2.774-8.936-10.442-8.936-10.442s-3.488-4.953-5.766-6.146
					C280.579,387.783,278.396,387.448,278.396,387.448z"/>
				<path style="fill:none;stroke:#263238;stroke-miterlimit:10;" d="M280.753,403.774c0,0,0.878-1.727,2.672-3.331"/>
				<path style="fill:none;stroke:#263238;stroke-miterlimit:10;" d="M294.408,402.191c0,0-2.006,0.314-3.592,2.002"/>
				<path style="fill:none;stroke:#263238;stroke-miterlimit:10;" d="M298.261,417.892c0.497-0.502,1.097-0.988,1.812-1.392"/>
				<path style="fill:none;stroke:#263238;stroke-miterlimit:10;" d="M296.198,421.043c0,0,0.438-1.263,1.55-2.588"/>
				<path style="fill:none;stroke:#263238;stroke-miterlimit:10;" d="M308.755,420.039c0,0-2.439,0.432-3.934,1.769"/>
				<path style="fill:none;stroke:#263238;stroke-miterlimit:10;" d="M277.021,395.091c0.366-0.306,0.792-0.63,1.288-0.971"/>
				<path style="fill:none;stroke:#263238;stroke-miterlimit:10;" d="M274.798,398.47c0,0-0.174-0.711,0.807-1.959"/>
				<path style="fill:none;stroke:#263238;stroke-miterlimit:10;" d="M309.864,429.469c0.278-0.394,0.667-0.825,1.207-1.275"/>
				<path style="fill:none;stroke:#263238;stroke-miterlimit:10;" d="M309.181,431.498c0,0-0.076-0.421,0.172-1.083"/>
			</g>
		</g>
		<g>
			<g>
				<path style="fill:#92E3A9;stroke:#263238;stroke-miterlimit:10;" d="M265.809,382.49l2.556,12.814l-0.425,0.751l1.442-0.229
					c0,0-1.851-9.886-2.572-13.619L265.809,382.49z"/>
				<path style="fill:#92E3A9;stroke:#263238;stroke-miterlimit:10;" d="M260.577,383.964l-0.844,0.238
					c1.931,2.781,3.621,5.426,4.232,6.401c1.288,2.056,3.004,6.456,3.004,6.456s1.098-0.732,0.971-1.005
					c-0.127-0.273-2.213-4.28-2.213-4.28S262.882,387.406,260.577,383.964z"/>
				<path style="fill:#92E3A9;stroke:#263238;stroke-miterlimit:10;" d="M263.889,383.031l-0.762,0.215
					c1.43,3.626,4.813,12.809,4.813,12.809l1.442-0.229c0,0-4.769-10.724-5.433-12.627
					C263.932,383.147,263.909,383.085,263.889,383.031z"/>
			</g>
			<g>
				<path style="fill:#D4D4D4;stroke:#263238;stroke-miterlimit:10;" d="M271.68,395.532c0,0-4.477-0.35-6.583,2.731
					c-2.106,3.082-0.1,8.343,1.787,11.448c1.887,3.104,4.988,9.294,7.485,14.659c2.496,5.365,5.291,9.707,5.291,9.707
					s3.211,5.475,5.891,9.095c2.68,3.62,6.342,7.448,6.959,7.824c0.618,0.376,1.859,0.905,1.891-0.216
					c0.032-1.121-1.888-12.617-3.116-15.254c-1.227-2.637-4.82-13.687-6.519-17.1c-1.699-3.413-5.524-12.585-5.524-12.585
					s-1.902-5.752-3.736-7.554S271.68,395.532,271.68,395.532z"/>
				<path style="fill:none;stroke:#263238;stroke-miterlimit:10;" d="M269.201,411.84c0,0,1.341-1.398,3.523-2.414"/>
				<path style="fill:none;stroke:#263238;stroke-miterlimit:10;" d="M282.729,414.285c0,0-2.011-0.281-4.018,0.874"/>
				<path style="fill:none;stroke:#263238;stroke-miterlimit:10;" d="M281.864,430.428c0.621-0.336,1.336-0.627,2.138-0.807"/>
				<path style="fill:none;stroke:#263238;stroke-miterlimit:10;" d="M278.975,432.846c0,0,0.786-1.082,2.234-2.027"/>
				<path style="fill:none;stroke:#263238;stroke-miterlimit:10;" d="M291.284,435.526c0,0-2.46-0.294-4.278,0.553"/>
				<path style="fill:none;stroke:#263238;stroke-miterlimit:10;" d="M268.147,402.448c0.44-0.187,0.941-0.373,1.514-0.556"/>
				<path style="fill:none;stroke:#263238;stroke-miterlimit:10;" d="M265.04,405.037c0,0,0.04-0.731,1.34-1.641"/>
				<path style="fill:none;stroke:#263238;stroke-miterlimit:10;" d="M289.611,444.872c0.381-0.296,0.877-0.596,1.524-0.87"/>
				<path style="fill:none;stroke:#263238;stroke-miterlimit:10;" d="M288.37,446.616c0,0,0.05-0.425,0.478-0.987"/>
			</g>
		</g>
	</g>
</g>
<g id="Vegetable_2">
	<g>
		<g>
			<path style="fill:#D4D4D4;stroke:#263238;stroke-miterlimit:10;" d="M314.825,305.477c0,0,0.829,0.724,2.144-0.19
				c1.315-0.915,2.545-3.916,2.364-3.335c-0.181,0.581-2.745,3.535-1.049,2.421c1.697-1.115,1.964-2.601,2.926-2.62
				c0.963-0.019,0.963-0.019,0.963-0.019s-1.363,0.753-1.783,2.02c-0.419,1.267-1.42,2.354-1.42,2.354l2.554-1.191l-1.316,2.411
				l1.668-0.314c0,0-1.611,3.202-2.116,3.878c-0.505,0.677-2.345,1.305-2.345,1.305l2.849,1.011c0,0-2.221,0.829-4.26-0.42
				c-2.039-1.249-2.563-1.535-2.563-1.535l-0.277,1.754c0,0-1.801-1.935-1.296-2.612c0.505-0.676-0.114-1.287-0.114-1.287
				L314.825,305.477z"/>
			<path style="fill:#92E3A9;stroke:#263238;stroke-miterlimit:10;" d="M303.419,295.716c0,0,5.509-4.612,9.607-2.648
				c4.098,1.964,4.116,7.415,3.467,9.102c-0.648,1.687-1.859,4.155-1.859,4.155s-0.744,1.363-2.259,3.392
				c-1.516,2.03-4.871,6.184-8.302,6.489c-3.431,0.304-6.289-3.432-6.67-6.224c-0.381-2.792,0.44-6.29,0.44-6.29
				s-5.717-4.48-9.262-8.455c-3.545-3.975-10.549-3.852-11.893-3.633c-1.344,0.219-18.584,1.15-26.542-1.968
				c-7.957-3.118-17.563-6.455-20.984-7.914c-3.421-1.459-7.528-3.156-5.412-4.042c2.116-0.886,14.295,2.223,18.707,2.862
				c4.412,0.639,19.908,3.654,19.908,3.654s-23.71-6.409-29.237-8.745c-5.527-2.336-8.92-3.099-9.777-4.519
				c-0.857-1.42-0.104-3.05,1.335-2.945c1.439,0.105,22.204,6.675,22.204,6.675s-10.187-5.015-16.076-7.684
				c-5.889-2.67-8.71-5.977-1.667-4.175c7.042,1.803,23.71,6.409,25.34,7.162c1.63,0.753,3.64,1.306,3.64,1.306
				s-4.069-4.261,0.897-4.136c4.965,0.125,7.204,3.251,11.321,6.178c4.117,2.927,9.967,8.16,12.511,10.228
				c2.544,2.069,4.374,4.699,5.422,5.271c1.048,0.572,11.273,6.016,12.121,6.206C301.246,295.211,303.419,295.716,303.419,295.716z"
				/>
			<path style="fill:#FFFFFF;stroke:#263238;stroke-miterlimit:10;" d="M312.375,309.718c-1.516,2.03-4.871,6.184-8.302,6.488
				c-3.431,0.304-6.289-3.432-6.67-6.224c-0.381-2.792,0.44-6.29,0.44-6.29l1.069-3.117l1.345-1.142c0,0,0.212-1.183,0.293-1.86
				c0.081-0.677,2.869-1.857,2.869-1.857s5.509-4.612,9.607-2.648c4.098,1.964,4.116,7.415,3.467,9.102
				c-0.648,1.687-1.859,4.155-1.859,4.155S313.891,307.688,312.375,309.718z"/>
			<g>
				<path style="fill:none;stroke:#263238;stroke-width:0.5;stroke-miterlimit:10;" d="M310.113,295.938c0,0,3.572-0.25,4.467,1.888
					"/>
				<path style="fill:none;stroke:#263238;stroke-width:0.5;stroke-miterlimit:10;" d="M315.09,300.166c0,0,1.157,1.236-0.265,5.312
					"/>
				<path style="fill:none;stroke:#263238;stroke-width:0.5;stroke-miterlimit:10;" d="M301.822,308.867
					c0,0,0.837,2.243,4.226,2.581c3.389,0.338,5.708-2.34,5.708-2.34"/>
				<path style="fill:none;stroke:#263238;stroke-width:0.5;stroke-miterlimit:10;" d="M300.906,313.315
					c0,0,1.386,1.993,3.822,1.811"/>
			</g>
			<path style="opacity:0.59;fill:#FFFFFF;" d="M223.749,277.68c2.116-0.886,14.295,2.223,18.707,2.862
				c4.412,0.639,19.908,3.654,19.908,3.654s-23.71-6.409-29.237-8.745c-5.527-2.336-8.92-3.099-9.777-4.519
				c-0.857-1.42-0.104-3.05,1.335-2.945c1.439,0.105,22.204,6.675,22.204,6.675s-10.187-5.015-16.076-7.684
				c-5.889-2.67-8.71-5.977-1.667-4.175c7.042,1.803,23.71,6.409,25.34,7.162c1.63,0.753,3.64,1.306,3.64,1.306
				s-4.069-4.261,0.897-4.136c4.965,0.125,7.204,3.251,11.321,6.178c4.117,2.927,9.967,8.16,12.511,10.228
				c2.544,2.069,4.374,4.699,5.422,5.271c1.048,0.572,11.273,6.016,12.121,6.206c0.848,0.191,3.021,0.696,3.021,0.696
				s-2.505,1.19-2.869,1.857c-0.364,0.667-0.051,1.415-0.293,1.86c-0.243,0.445-1.213,0.637-1.345,1.142
				c-0.132,0.505,0.293-0.273-0.132,0.505c-0.425,0.778-0.938,2.612-0.938,2.612s-5.717-4.48-9.262-8.455
				c-3.545-3.975-10.549-3.852-11.893-3.633c-1.344,0.219-18.584,1.15-26.541-1.968c-7.957-3.118-17.563-6.455-20.984-7.914
				C225.741,280.263,221.634,278.566,223.749,277.68z"/>
			<path style="fill:none;stroke:#263238;stroke-miterlimit:10;" d="M223.749,277.68c2.116-0.886,14.295,2.223,18.707,2.862
				c4.412,0.639,19.908,3.654,19.908,3.654s-23.71-6.409-29.237-8.745c-5.527-2.336-8.92-3.099-9.777-4.519
				c-0.857-1.42-0.104-3.05,1.335-2.945c1.439,0.105,22.204,6.675,22.204,6.675s-10.187-5.015-16.076-7.684
				c-5.889-2.67-8.71-5.977-1.667-4.175c7.042,1.803,23.71,6.409,25.34,7.162c1.63,0.753,3.64,1.306,3.64,1.306
				s-4.069-4.261,0.897-4.136c4.965,0.125,7.204,3.251,11.321,6.178c4.117,2.927,9.967,8.16,12.511,10.228
				c2.544,2.069,4.374,4.699,5.422,5.271c1.048,0.572,11.273,6.016,12.121,6.206c0.848,0.191,3.021,0.696,3.021,0.696
				s-2.505,1.19-2.869,1.857c-0.364,0.667-0.051,1.415-0.293,1.86c-0.243,0.445-1.213,0.637-1.345,1.142
				c-0.132,0.505,0.293-0.273-0.132,0.505c-0.425,0.778-0.938,2.612-0.938,2.612s-5.717-4.48-9.262-8.455
				c-3.545-3.975-10.549-3.852-11.893-3.633c-1.344,0.219-18.584,1.15-26.541-1.968c-7.957-3.118-17.563-6.455-20.984-7.914
				C225.741,280.263,221.634,278.566,223.749,277.68z"/>
			<path style="fill:#92E3A9;stroke:#263238;stroke-miterlimit:10;" d="M259.023,267.137c4.965,0.125,7.204,3.251,11.321,6.178
				c4.117,2.927,9.967,8.16,12.511,10.228c2.414,1.963,4.183,4.428,5.253,5.164c-0.232,0.106-0.543,0.248-0.966,0.44l-1.048-0.572
				c0,0,0.076,0.858-0.991,0.819c-1.067-0.038-1.429-0.372-1.429-0.372s0.333,1.134-0.467,1.105c-0.8-0.029-3.468-3.117-8.214-7.883
				c-4.745-4.766-16.867-10.972-16.867-10.972S254.058,267.012,259.023,267.137z"/>
			<g>
				<path style="fill:#92E3A9;stroke:#263238;stroke-miterlimit:10;" d="M223.35,270.933c-0.857-1.42-0.104-3.05,1.335-2.945
					c1.439,0.105,22.204,6.675,22.204,6.675s-10.187-5.015-16.076-7.684c-5.889-2.67-8.71-5.977-1.667-4.175
					c7.042,1.803,23.71,6.409,25.34,7.162c1.63,0.753,3.64,1.306,3.64,1.306s5.374,3.613,9.625,5.796
					c4.25,2.183,7.976,5.577,8.462,6.93l-1.382,1.286l-2.764-0.42l-9.491-3.547c0,0,0.886,2.116,0.714,2.43
					c-0.172,0.314-0.924,0.448-0.924,0.448s-23.71-6.409-29.237-8.745C227.6,273.116,224.208,272.353,223.35,270.933z"/>
				<path style="fill:#92E3A9;stroke:#263238;stroke-miterlimit:10;" d="M223.749,277.68c2.116-0.886,14.295,2.223,18.707,2.862
					c4.412,0.639,19.908,3.654,19.908,3.654s4.917,1.459,6.499,2.05c1.582,0.591,3.431,1.192,2.992,1.497
					c-0.438,0.305-5.156,0.723-5.156,0.723s8.558,1.269,9.663,1.736c0.866,0.366,1.659,0.86,1.954,1.314
					c-0.755-0.005-1.332,0.039-1.63,0.087c-1.344,0.219-18.584,1.15-26.541-1.968c-7.957-3.118-17.563-6.455-20.984-7.914
					C225.741,280.263,221.634,278.566,223.749,277.68z"/>
			</g>
			<line style="fill:none;stroke:#263238;stroke-miterlimit:10;" x1="246.889" y1="274.663" x2="261.355" y2="281.061"/>
			<path style="fill:none;stroke:#263238;stroke-miterlimit:10;" d="M264.613,288.552c0,0-17.688-1.49-26.903-3.798"/>
			<g>
				<path style="fill:none;stroke:#263238;stroke-width:0.5;stroke-miterlimit:10;" d="M302.32,296.534c0,0-0.175,0.178-2.377-1.023
					"/>
				<path style="fill:none;stroke:#263238;stroke-width:0.5;stroke-miterlimit:10;" d="M297.282,295.496
					c0,0,2.122,0.955,3.622,1.788"/>
				
					<line style="fill:none;stroke:#263238;stroke-width:0.5;stroke-miterlimit:10;" x1="292.507" y1="294.523" x2="300.32" y2="298.701"/>
				<path style="fill:none;stroke:#263238;stroke-width:0.5;stroke-miterlimit:10;" d="M292.907,296.782c0,0,5.5,2.973,6.005,3.793"
					/>
				<path style="fill:none;stroke:#263238;stroke-width:0.5;stroke-miterlimit:10;" d="M295.87,300.575c0,0,2.039,1.249,2.535,2.335
					"/>
			</g>
		</g>
		<g>
			<path style="fill:#D4D4D4;stroke:#263238;stroke-miterlimit:10;" d="M290.209,314.339c0,0,0.414,1.02,2,0.796
				c1.586-0.224,4.037-2.349,3.613-1.912c-0.424,0.437-4.044,1.919-2.027,1.688c2.017-0.23,2.925-1.437,3.793-1.02
				c0.868,0.417,0.868,0.417,0.868,0.417s-1.556,0.058-2.502,1c-0.946,0.942-2.329,1.461-2.329,1.461l2.817,0.088l-2.261,1.559
				l1.63,0.471c0,0-2.881,2.132-3.637,2.509c-0.756,0.376-2.681,0.109-2.681,0.109l2.088,2.186c0,0-2.356-0.261-3.614-2.295
				c-1.258-2.034-1.597-2.525-1.597-2.525l-1.037,1.441c0,0-0.736-2.539,0.02-2.915c0.756-0.376,0.478-1.2,0.478-1.2
				L290.209,314.339z"/>
			<path style="fill:#92E3A9;stroke:#263238;stroke-miterlimit:10;" d="M284.426,300.485c0,0,6.996-1.634,9.769,1.966
				c2.773,3.6,0.332,8.474-1.007,9.688c-1.339,1.214-3.532,2.871-3.532,2.871s-1.278,0.881-3.546,2.01
				c-2.268,1.129-7.135,3.326-10.335,2.051c-3.2-1.274-4.068-5.898-3.149-8.562c0.918-2.664,3.227-5.417,3.227-5.417
				s-3.085-6.576-4.458-11.722c-1.373-5.146-7.681-8.193-8.98-8.603c-1.298-0.41-17.108-7.349-22.807-13.718
				c-5.698-6.369-12.77-13.677-15.166-16.521c-2.397-2.844-5.298-6.21-3.01-6.047c2.288,0.163,11.759,8.427,15.41,10.986
				c3.651,2.559,16.125,12.233,16.125,12.233s-18.278-16.406-22.159-20.982c-3.881-4.576-6.566-6.786-6.692-8.44
				c-0.125-1.654,1.281-2.77,2.519-2.027c1.237,0.742,16.814,15.965,16.814,15.965s-6.834-9.067-10.888-14.105
				c-4.054-5.037-5.082-9.261,0.393-4.478c5.475,4.783,18.278,16.406,19.393,17.813c1.115,1.407,2.661,2.807,2.661,2.807
				s-1.712-5.637,2.664-3.288c4.376,2.349,4.966,6.149,7.322,10.617c2.356,4.468,5.221,11.776,6.56,14.769
				c1.339,2.993,1.787,6.166,2.465,7.149c0.678,0.983,7.353,10.45,8.024,11.003C282.714,299.055,284.426,300.485,284.426,300.485z"
				/>
			<path style="fill:#FFFFFF;stroke:#263238;stroke-miterlimit:10;" d="M286.111,317.021c-2.268,1.129-7.135,3.326-10.335,2.051
				c-3.2-1.274-4.068-5.898-3.149-8.562c0.918-2.664,3.227-5.417,3.227-5.417l2.359-2.301l1.715-0.414c0,0,0.723-0.96,1.1-1.528
				c0.378-0.568,3.398-0.364,3.398-0.364s6.996-1.634,9.769,1.966c2.773,3.6,0.332,8.474-1.007,9.688
				c-1.339,1.214-3.532,2.871-3.532,2.871S288.378,315.892,286.111,317.021z"/>
			<g>
				<path style="fill:none;stroke:#263238;stroke-width:0.5;stroke-miterlimit:10;" d="M290.301,303.7c0,0,3.301,1.387,3.137,3.698"
					/>
				<path style="fill:none;stroke:#263238;stroke-width:0.5;stroke-miterlimit:10;" d="M292.839,309.717c0,0,0.475,1.625-2.63,4.622
					"/>
				<path style="fill:none;stroke:#263238;stroke-width:0.5;stroke-miterlimit:10;" d="M277.073,311.505c0,0-0.264,2.38,2.61,4.209
					c2.873,1.829,6.15,0.483,6.15,0.483"/>
				<path style="fill:none;stroke:#263238;stroke-width:0.5;stroke-miterlimit:10;" d="M274.251,315.063
					c0,0,0.339,2.404,2.596,3.339"/>
			</g>
			<path style="opacity:0.59;fill:#FFFFFF;" d="M221.432,248.482c2.288,0.163,11.759,8.427,15.41,10.986
				c3.651,2.559,16.125,12.233,16.125,12.233s-18.278-16.406-22.159-20.982c-3.881-4.576-6.566-6.786-6.692-8.44
				c-0.125-1.654,1.281-2.769,2.519-2.027c1.237,0.742,16.814,15.965,16.814,15.965s-6.834-9.067-10.888-14.105
				c-4.054-5.037-5.082-9.261,0.393-4.478c5.475,4.783,18.278,16.406,19.393,17.813c1.115,1.407,2.661,2.807,2.661,2.807
				s-1.712-5.637,2.664-3.288c4.376,2.349,4.966,6.149,7.322,10.617c2.356,4.468,5.221,11.776,6.56,14.769
				c1.339,2.993,1.787,6.166,2.465,7.149c0.678,0.983,7.353,10.45,8.024,11.003c0.671,0.552,2.383,1.983,2.383,1.983
				s-2.773-0.067-3.398,0.364c-0.626,0.431-0.683,1.24-1.1,1.528c-0.417,0.288-1.37,0.022-1.715,0.414
				c-0.345,0.392,0.385-0.111-0.345,0.392c-0.73,0.503-2.014,1.909-2.014,1.909s-3.085-6.576-4.458-11.722
				c-1.373-5.146-7.681-8.193-8.98-8.603c-1.298-0.41-17.108-7.348-22.807-13.718c-5.698-6.369-12.77-13.677-15.166-16.521
				C222.046,251.685,219.144,248.319,221.432,248.482z"/>
			<path style="fill:none;stroke:#263238;stroke-miterlimit:10;" d="M221.432,248.482c2.288,0.163,11.759,8.427,15.41,10.986
				c3.651,2.559,16.125,12.233,16.125,12.233s-18.278-16.406-22.159-20.982c-3.881-4.576-6.566-6.786-6.692-8.44
				c-0.125-1.654,1.281-2.769,2.519-2.027c1.237,0.742,16.814,15.965,16.814,15.965s-6.834-9.067-10.888-14.105
				c-4.054-5.037-5.082-9.261,0.393-4.478c5.475,4.783,18.278,16.406,19.393,17.813c1.115,1.407,2.661,2.807,2.661,2.807
				s-1.712-5.637,2.664-3.288c4.376,2.349,4.966,6.149,7.322,10.617c2.356,4.468,5.221,11.776,6.56,14.769
				c1.339,2.993,1.787,6.166,2.465,7.149c0.678,0.983,7.353,10.45,8.024,11.003c0.671,0.552,2.383,1.983,2.383,1.983
				s-2.773-0.067-3.398,0.364c-0.626,0.431-0.683,1.24-1.1,1.528c-0.417,0.288-1.37,0.022-1.715,0.414
				c-0.345,0.392,0.385-0.111-0.345,0.392c-0.73,0.503-2.014,1.909-2.014,1.909s-3.085-6.576-4.458-11.722
				c-1.373-5.146-7.681-8.193-8.98-8.603c-1.298-0.41-17.108-7.348-22.807-13.718c-5.698-6.369-12.77-13.677-15.166-16.521
				C222.046,251.685,219.144,248.319,221.432,248.482z"/>
			<path style="fill:#92E3A9;stroke:#263238;stroke-miterlimit:10;" d="M257.672,254.965c4.376,2.349,4.966,6.149,7.322,10.617
				c2.356,4.468,5.221,11.776,6.56,14.769c1.271,2.84,1.739,5.838,2.363,6.978c-0.255-0.01-0.596-0.024-1.061-0.042l-0.678-0.983
				c0,0-0.319,0.8-1.254,0.285c-0.936-0.515-1.108-0.976-1.108-0.976s-0.214,1.163-0.915,0.776
				c-0.702-0.386-1.692-4.346-3.78-10.739c-2.088-6.393-10.112-17.396-10.112-17.396S253.296,252.616,257.672,254.965z"/>
			<g>
				<path style="fill:#92E3A9;stroke:#263238;stroke-miterlimit:10;" d="M224.117,242.278c-0.125-1.654,1.281-2.769,2.519-2.027
					c1.237,0.742,16.814,15.965,16.814,15.965s-6.834-9.067-10.888-14.105c-4.054-5.037-5.082-9.261,0.393-4.478
					c5.475,4.783,18.278,16.406,19.393,17.813c1.115,1.407,2.661,2.807,2.661,2.807s3.17,5.647,5.98,9.512s4.607,8.572,4.431,10
					l-1.814,0.525l-2.278-1.62l-6.875-7.444c0,0-0.163,2.288-0.458,2.491c-0.295,0.203-1.027-0.017-1.027-0.017
					s-18.278-16.406-22.159-20.982C226.927,246.142,224.242,243.932,224.117,242.278z"/>
				<path style="fill:#92E3A9;stroke:#263238;stroke-miterlimit:10;" d="M221.432,248.482c2.288,0.163,11.759,8.427,15.41,10.986
					c3.651,2.559,16.125,12.233,16.125,12.233s3.732,3.518,4.878,4.759c1.146,1.241,2.525,2.61,1.997,2.685
					c-0.529,0.075-4.929-1.678-4.929-1.678s7.068,4.99,7.844,5.905c0.608,0.717,1.093,1.515,1.152,2.053
					c-0.672-0.344-1.207-0.565-1.495-0.656c-1.298-0.41-17.108-7.348-22.807-13.718c-5.698-6.369-12.77-13.677-15.166-16.521
					C222.046,251.685,219.144,248.319,221.432,248.482z"/>
			</g>
			<line style="fill:none;stroke:#263238;stroke-miterlimit:10;" x1="243.449" y1="256.216" x2="253.479" y2="268.446"/>
			<path style="fill:none;stroke:#263238;stroke-miterlimit:10;" d="M253.012,276.602c0,0-15.118-9.301-22.305-15.514"/>
			<g>
				<path style="fill:none;stroke:#263238;stroke-width:0.5;stroke-miterlimit:10;" d="M283.007,300.341
					c0,0-0.168,0.459-1.592-1.605"/>
				<path style="fill:none;stroke:#263238;stroke-width:0.5;stroke-miterlimit:10;" d="M279.046,297.523c0,0,0.707,2.32,1.982,3.327
					"/>
				
					<line style="fill:none;stroke:#263238;stroke-width:0.5;stroke-miterlimit:10;" x1="275.222" y1="294.503" x2="280.34" y2="301.924"/>
				<path style="fill:none;stroke:#263238;stroke-width:0.5;stroke-miterlimit:10;" d="M274.561,296.699c0,0,3.57,5.133,3.651,6.092
					"/>
				<path style="fill:none;stroke:#263238;stroke-width:0.5;stroke-miterlimit:10;" d="M275.497,301.421c0,0,1.258,2.034,1.21,3.227
					"/>
			</g>
		</g>
	</g>
</g>
<g id="Vegetable_1">
	<g>
		<g>
			<g>
				<path style="fill:#92E3A9;stroke:#263238;stroke-miterlimit:10;" d="M222.958,140.021l2.192,4.134l2.364,4.288l1.594,2.792
					l2.873,1.641l0.933,0.898l0.48,0.988l1.495,1.587l1.432,1.034c0,0,5.22,3.247,7.06,3.963c1.84,0.717,7.504,1.942,8.728,2.169
					c1.224,0.227,5.709,2.63,6.009,2.712c0.299,0.082,5.383,1.47,5.592-0.08c0.209-1.55-1.32-9.681-1.32-9.681
					s-8.398-13.97-10.029-15.058c-1.631-1.088-3.534-2.358-4.576-2.857c-1.042-0.499-2.819-0.663-3.933-1.288
					c-1.115-0.626-4.44-3.355-6.633-3.954c-2.193-0.599-5.928-0.654-5.928-0.654l-2.91,1.241l-1.976,0.96
					c0,0-1.841,1.64-2.049,2.012C224.147,137.239,223.122,138.244,222.958,140.021z"/>
				<path style="fill:none;stroke:#263238;stroke-width:0.5;stroke-miterlimit:10;" d="M248.635,152.979c0,0-0.617-4.04-0.55-4.81
					c0.067-0.77-0.436-3.13-0.436-3.13s-0.121-0.607-0.254-1.432c-0.133-0.825,0-1.577-0.454-2.275
					c-0.455-0.698-0.964-1.195-0.964-1.195"/>
				<path style="fill:none;stroke:#263238;stroke-width:0.5;stroke-miterlimit:10;" d="M233.054,135.749
					c0.297,0.225,0.509,0.498,0.946,1.262c0.437,0.764,0.467,1.704,0.467,1.704l1.217,4.992l0.333,0.88c0,0-3.482,1.988-4.355,2.036
					c-0.873,0.048-2.365-0.001-2.365-0.001s-0.218,0.012-0.57-0.012"/>
				<path style="fill:none;stroke:#263238;stroke-width:0.5;stroke-miterlimit:10;" d="M232.188,149.419c0,0,6.12-0.623,6.926-0.689
					c0.807-0.066,2.632-0.715,2.632-0.715s0.165-3.754,0.238-4.021c0.073-0.267,0.735-4.53,0.608-4.852
					c-0.127-0.321-0.127-0.321-0.127-0.321"/>
				<polyline style="fill:none;stroke:#263238;stroke-width:0.5;stroke-miterlimit:10;" points="235.784,153.053 240.09,153.297 
					242.952,153.577 244.129,153.469 246.852,153.209 				"/>
				<polyline style="fill:none;stroke:#263238;stroke-width:0.5;stroke-miterlimit:10;" points="252.989,156.462 253.5,150.651 
					252.792,146.157 				"/>
				<path style="fill:none;stroke:#263238;stroke-width:0.5;stroke-miterlimit:10;" d="M257.294,159.859c0,0,0.11-2.766,0.038-3.287
					c-0.073-0.522-0.121-1.395-0.121-1.395l0.146-1.322l-0.188-1.413"/>
				<path style="fill:#263238;stroke:#263238;stroke-miterlimit:10;" d="M229.792,140.494c0,0,16.447,11.562,18.069,13.076
					c1.622,1.514,13.964,11.633,14.843,12.73c0.879,1.097,5.131,7.732,5.131,7.732l1.955-1.512l-8.155-8.976l-12.188-10.292
					C249.448,153.254,232.684,141.284,229.792,140.494z"/>
			</g>
			<path style="fill:#696969;stroke:#263238;stroke-miterlimit:10;" d="M266.805,175.022c0,0-4.158,3.619-3.904,10.604
				c0.254,6.985,7.396,10.377,11.638,10.671c4.242,0.294,10.959-0.033,12.702,0.443s3.474,1.525,4.485,3.098
				c1.011,1.573,1.023,4.169,1.523,2.865c0.5-1.304-0.267-3.243-1.12-4.34c-0.853-1.097-1.767-2.5-1.291-4.243
				c0.476-1.743,2.697-7.764,3.113-12.982c0.416-5.217-0.643-9.253-4.397-11.863c-3.754-2.61-7.411-3.464-10.129-2.478
				c-2.719,0.986-6.122,3.609-7.66,4.571c-1.538,0.962-2.977,1.95-2.977,1.95L266.805,175.022z"/>
			<path style="fill:none;stroke:#263238;stroke-miterlimit:10;" d="M266.594,191.589c0,0,3.32-7.671,7.946-12.045"/>
			<path style="fill:none;stroke:#263238;stroke-miterlimit:10;" d="M285.322,179.548c0,0,3.464-3.711,7.861-5.451"/>
			<path style="fill:none;stroke:#263238;stroke-miterlimit:10;" d="M278.827,196.155c0,0,1.246-4.561,4.419-8.106"/>
			<path style="fill:none;stroke:#263238;stroke-miterlimit:10;" d="M276.301,182.966c0,0,2.655-3.441,4.294-4.954"/>
			<g>
				<path style="fill:#92E3A9;stroke:#263238;stroke-miterlimit:10;" d="M263.217,171.223c0,0-0.667-2.691-0.323-4.22
					c0.344-1.529,0.819-5.162-0.198-6.03s-3.127-0.706-4.238-1.231c-1.111-0.525-3.245-3.247-3.245-3.247s-4.139-0.245-4.825-0.432
					s-2.016-0.993-2.865-0.856c-0.849,0.137-0.768,0.381-1.66,0.137c-0.893-0.244-1.573-0.725-2.478-0.382
					c-0.905,0.343-2.379,0.605-2.759,0.648c-0.381,0.044-0.73-1.38-2.478-1.193c-1.748,0.187-2.204,0.505-3.003,0.729
					c-0.799,0.224-3.265,0.879-3.265,0.879l-1.823,1.273l-2.454,1.691l-1.548,1.348c0,0-0.344,0.718-1.012,1.273
					c-0.668,0.555-1.03,0.53-1.48,1.367c-0.45,0.836-0.338,2.859-0.338,2.859l0.505,1.392l0.43,1.667l1.447,2.535l4.6,2.879
					l3.439,1.456l3.421,0.713c0,0,3.902-2.402,4.42-2.408c0.518-0.006,1.51,0.413,2.428,1.106c0.917,0.693,2.459,1.262,3.021,0.825
					c0.562-0.437,1.373-0.436,1.373-0.436s0.374,1.873,1.591,2.279c1.217,0.406,2.035,0.113,2.515,0.244
					c0.481,0.131,0.062,1.124,0.924,1.211c0.861,0.088,1.598-0.449,2.01-0.336c0.412,0.113,1.753,1.954,3.308,1.936
					c1.554-0.018,2.129-1.853,2.092-2.527c-0.037-0.674,0.077-5.144,0.077-5.144L263.217,171.223z"/>
				<path style="fill:#263238;stroke:#263238;stroke-miterlimit:10;" d="M267.836,174.033c0,0-6.672-4.478-9.711-6.046
					c-3.04-1.568-13.089-3.943-15.492-3.788c-2.403,0.155-12.242,1.6-12.242,1.6l-3.327,0.567c0,0,10.625-1.083,12.978-1.325
					c2.353-0.243,4.07-0.585,6.504,0.227s8.826,2.262,9.544,2.606c0.718,0.344,6.921,4.103,7.514,4.634
					c0.593,0.531,3.201,2.513,3.201,2.513L267.836,174.033z"/>
				<path style="fill:none;stroke:#263238;stroke-width:0.5;stroke-miterlimit:10;" d="M251.137,160.034
					c-0.512-0.503-1.019-1.03-1.473-1.588"/>
				<path style="fill:none;stroke:#263238;stroke-width:0.5;stroke-miterlimit:10;" d="M256.333,166.982
					c0.168,0.194-1.229-2.254-2.096-3.671c-0.395-0.646-1.059-1.32-1.812-2.041"/>
				<path style="fill:none;stroke:#263238;stroke-width:0.5;stroke-miterlimit:10;" d="M251.521,165.963
					c0,0-0.948-2.472-2.371-2.935c-1.423-0.462-4.338-2.217-5.542-3.21c-1.204-0.993-2.091-1.53-2.091-1.53"/>
				<path style="fill:none;stroke:#263238;stroke-width:0.5;stroke-miterlimit:10;" d="M239.008,168.522
					c-0.388,0.577-0.881,1.235-1.709,1.968c-1.655,1.466-1.168,1.304-1.655,1.466"/>
				<path style="fill:none;stroke:#263238;stroke-width:0.5;stroke-miterlimit:10;" d="M242.495,164.974c0,0-1.598,1.26-2.41,2.072
					c-0.122,0.122-0.233,0.252-0.339,0.389"/>
				<path style="fill:none;stroke:#263238;stroke-width:0.5;stroke-miterlimit:10;" d="M248.718,166.231c0,0-1.218,1.217-2.71,2.359
					c-1.492,1.142-2.466,1.466-2.466,1.466"/>
				<path style="fill:none;stroke:#263238;stroke-width:0.5;stroke-miterlimit:10;" d="M251.533,171.197
					c0.854-0.231,1.725-0.43,2.303-0.471c1.504-0.106,2.585-0.548,2.585-0.548l2.428-0.517"/>
				<path style="fill:none;stroke:#263238;stroke-width:0.5;stroke-miterlimit:10;" d="M248.835,172.017
					c0,0,0.717-0.243,1.641-0.518"/>
				<path style="fill:none;stroke:#263238;stroke-width:0.5;stroke-miterlimit:10;" d="M262.15,170.267c0,0-2.234-2.897-3.014-4.364
					c-0.78-1.467-1.435-3.122-1.753-3.577"/>
				<path style="fill:none;stroke:#263238;stroke-width:0.5;stroke-miterlimit:10;" d="M262.043,172.009
					c0,0-3.708-0.201-4.482,0.473c-0.774,0.674-2.242,3.077-3.572,3.083"/>
				<path style="fill:none;stroke:#263238;stroke-width:0.5;stroke-miterlimit:10;" d="M244.774,164.194
					c0,0-1.685-1.936-3.158-2.486c-1.473-0.55-3.164-1.38-3.164-1.38l-1.691-0.831l-1.073-0.662"/>
			</g>
			<g>
				<path style="fill:#92E3A9;stroke:#263238;stroke-miterlimit:10;" d="M266.335,161.967c0,0-2.191-0.893-4.038-2.504
					c-1.847-1.611-1.147-3.633-1.522-4.695c-0.374-1.061-0.867-1.417-1.897-2.51c-1.03-1.093-1.216-2.841-1.616-3.54
					c-0.399-0.699-2.59-1.593-4.718-3.797c-2.128-2.204-0.553-7.16-0.072-7.84c0.481-0.68,1.661-3.383,1.444-5.287
					c-0.218-1.904,1.775-6.229,3.086-6.978c1.311-0.749,3.303-1.828,4.232-0.91c0.93,0.918,1.441,2.017,1.441,2.017
					s2.116,1.168,2.727,2.442c0.611,1.274,2.002,4.014,2.171,5.019c0.168,1.005,0.604,4.813,0.604,4.813l0.474,2.048l1.41,1.049
					l-0.794,4.8l0.236,2.647l0.38,1.579l0.1,0.986l0.487,0.649c0,0,1.099,0.3,1.211,0.7c0.112,0.4,0.131,0.331,0.343,0.905
					c0.212,0.574,0.155,3.215,0.155,3.215l-0.35,1.011l-0.019,1.692c0,0,0.006,1.33-0.949,1.585s-1.792,0.618-1.792,0.618
					L266.335,161.967z"/>
				<path style="fill:none;stroke:#263238;stroke-width:0.5;stroke-miterlimit:10;" d="M257.663,145.268
					c-1.02-0.954-2.27-1.857-2.27-1.857l-1.423-1.274"/>
				<path style="fill:none;stroke:#263238;stroke-width:0.5;stroke-miterlimit:10;" d="M262.4,149.088c0,0-2.241-1.434-3.506-2.574"
					/>
				<path style="fill:none;stroke:#263238;stroke-width:0.5;stroke-miterlimit:10;" d="M256.106,137.237
					c-0.672-1.647-0.717-2.459-0.717-2.459"/>
				<path style="fill:none;stroke:#263238;stroke-width:0.5;stroke-miterlimit:10;" d="M261.422,143.213c0,0-2.234-2.086-2.69-2.579
					c-0.401-0.434-0.976-0.23-1.839-1.732"/>
				
					<line style="fill:none;stroke:#263238;stroke-width:0.5;stroke-miterlimit:10;" x1="263.978" y1="133.582" x2="264.366" y2="131.622"/>
				<path style="fill:none;stroke:#263238;stroke-width:0.5;stroke-miterlimit:10;" d="M256.145,131.738
					c0,0,2.571,3.284,2.852,3.877c0.281,0.593,1.279,1.53,1.429,1.792c0.15,0.262,0.518,0.805,0.518,0.805s1.081-2.066,1.605-2.365
					c0.131-0.075,0.273-0.207,0.412-0.362"/>
				
					<line style="fill:none;stroke:#263238;stroke-width:0.5;stroke-miterlimit:10;" x1="266.835" y1="145.683" x2="267.67" y2="144.108"/>
				<path style="fill:none;stroke:#263238;stroke-width:0.5;stroke-miterlimit:10;" d="M266.077,141.979
					c-0.16,0.441-0.283,0.819-0.317,1.017c-0.119,0.705-0.269,1.255-0.269,1.255l-1.174,1.598l-1.255,2.166
					c0,0,0.81,3.246,0.891,3.49c0.081,0.243,1.355-1.991,1.355-1.991l0.855-2.435"/>
				<path style="fill:none;stroke:#263238;stroke-width:0.5;stroke-miterlimit:10;" d="M267.135,139.314
					c0,0-0.251,0.595-0.539,1.316"/>
				<path style="fill:none;stroke:#263238;stroke-width:0.5;stroke-miterlimit:10;" d="M268.625,153.372
					c-0.135,0.615-0.246,1.11-0.246,1.11s-0.462,1.423-0.887,1.897c-0.425,0.474-0.3,0.287-1.036,0.824
					c-0.737,0.537-0.737,0.537-0.737,0.537s-2.921-2.273-3.158-2.485c-0.237-0.212-0.406-0.406-0.661-0.55"/>
				<path style="fill:none;stroke:#263238;stroke-width:0.5;stroke-miterlimit:10;" d="M269.091,151.062
					c-0.009,0.127-0.1,0.589-0.214,1.134"/>
				<path style="fill:none;stroke:#263238;stroke-width:0.5;stroke-miterlimit:10;" d="M260.785,150.701
					c0.848,0.776,1.734,1.59,1.82,1.689c0.169,0.194,0.73,0.568,0.917,0.693c0.187,0.125,0.73,0.568,0.73,0.568
					s1.948-1.46,2.885-3.27c0.937-1.81,1.074-2.584,1.074-2.584"/>
				<path style="fill:none;stroke:#263238;stroke-width:0.5;stroke-miterlimit:10;" d="M259.186,149.243
					c0,0,0.443,0.403,1.011,0.921"/>
				<path style="fill:#263238;stroke:#263238;stroke-miterlimit:10;" d="M268.788,173.318c0,0-2.442-11.294-3.709-14.828
					c-1.267-3.534-3.135-10.314-3.278-12.904c-0.143-2.59-1.471-11.347-1.363-11.743c0.108-0.395,0.109-5.071,0.109-5.071
					s1.372,12.489,2.108,16.41c0.736,3.92,3.116,11.159,3.628,12.787c0.512,1.628,2.659,8.165,2.955,9.415
					c0.296,1.25,2.525,3.984,2.525,3.984L268.788,173.318z"/>
			</g>
			<g>
				<path style="fill:#92E3A9;stroke:#263238;stroke-miterlimit:10;" d="M272.838,165.439c0,0-2.108-6.33-2.775-7.398
					c-0.668-1.068-0.952-8.671-0.04-11.742c0.912-3.071,3.348-5.505,3.348-5.505l1.68-3.451c0,0,2.778-1.528,3.877-1.228
					c1.099,0.3,2.796,0.837,2.796,0.837s0.749,0.5,0.499,1.686c-0.25,1.186-0.95,2.397-0.95,2.397s0.012,0.225-1.23,2.615
					c-1.243,2.39-1.468,3.214-1.468,3.214l-0.319,1.979l-0.438,2.684l0.206,0.868c0,0,0.5-0.749-0.013,1.398
					c-0.512,2.147-0.419,2.615-0.419,2.615s2.053,1.667,1.597,2.797c-0.456,1.13-1.174,2.409-1.174,2.409l-0.793,0.743
					c0,0-0.437,0.25-1.055,0.081c-0.618-0.169-0.593-0.531-1.217-0.406c-0.624,0.125-1.417,0.867-1.417,0.867l-0.082,3.814
					L272.838,165.439z"/>
				<path style="fill:#263238;stroke:#263238;stroke-miterlimit:10;" d="M273.456,170.236c0,0-0.825-6.708-0.483-8.74
					c0.342-2.032,2.206-10.025,2.584-11.409c0.378-1.384,4.549-10.183,4.549-10.183s-3.161,8.064-3.53,9.955
					c-0.369,1.891-1.85,8.127-2.325,10.137c-0.475,2.01-0.463,3.046-0.563,5.306c-0.101,2.26,1.191,4.014,1.191,4.014
					L273.456,170.236z"/>
				<path style="fill:none;stroke:#263238;stroke-width:0.5;stroke-miterlimit:10;" d="M274.39,154.354c0,0-0.824-1.036-1.123-1.561
					c-0.299-0.524-1.416-4.002-1.416-4.002l-0.661-2.173"/>
				<path style="fill:none;stroke:#263238;stroke-width:0.5;stroke-miterlimit:10;" d="M275.934,149.242l-1.086-1.698
					c0,0-0.705-1.742-0.923-2.023c-0.218-0.281-0.406-0.406-0.468-0.718"/>
				<polyline style="fill:none;stroke:#263238;stroke-width:0.5;stroke-miterlimit:10;" points="278.332,143.699 277.453,142.057 
					277.041,141.133 276.748,140.316 276.836,139.454 				"/>
				<path style="fill:none;stroke:#263238;stroke-width:0.5;stroke-miterlimit:10;" d="M274.132,160.702c0,0,0.656-0.78,0.849-0.949
					s0.506-0.231,0.668-0.555c0.162-0.325,0.412-0.699,0.412-0.699l0.506-1.042l0.063-0.499l0.231-1.117"/>
			</g>
		</g>
		<g>
			<polygon style="fill:#263238;stroke:#263238;stroke-miterlimit:10;" points="240.788,182.712 232.864,175.708 233.929,174.66 
				240.502,179.898 233.504,168.919 235.305,167.309 243.045,180.699 243.644,171.196 245.124,170.996 244.952,180.227 
				249.887,172.953 251.117,173.645 246.009,182.218 			"/>
			<path style="fill:#696969;stroke:#263238;stroke-miterlimit:10;" d="M237.042,182.084c0,0-5.253,1.672-7.792,8.185
				c-2.539,6.512,2.672,12.46,6.449,14.413c3.777,1.953,10.073,4.318,11.484,5.447s2.583,2.778,2.888,4.623
				c0.304,1.845-0.716,4.233,0.261,3.234c0.977-0.999,1.041-3.082,0.694-4.428c-0.348-1.346-0.63-2.995,0.499-4.407
				c1.129-1.411,5.556-6.057,8.008-10.681c2.452-4.624,3.081-8.748,0.671-12.634c-2.41-3.885-5.428-6.121-8.315-6.294
				c-2.887-0.173-7.051,0.884-8.844,1.156c-1.793,0.272-3.506,0.609-3.506,0.609L237.042,182.084z"/>
			<path style="fill:none;stroke:#263238;stroke-miterlimit:10;" d="M230.275,197.208c0,0,6.092-5.724,12.073-7.903"/>
			<path style="fill:none;stroke:#263238;stroke-miterlimit:10;" d="M252.244,193.586c0,0,4.652-2.032,9.378-1.884"/>
			<path style="fill:none;stroke:#263238;stroke-miterlimit:10;" d="M239.692,206.253c0,0,2.953-3.693,7.273-5.687"/>
			<path style="fill:none;stroke:#263238;stroke-miterlimit:10;" d="M242.607,193.145c0,0,3.803-2.105,5.907-2.844"/>
		</g>
	</g>
</g>
<g id="Text_3">
	<g>
		<g>
			<path style="fill:#263238;" d="M325.354,409.071c-2.483,0-4.381-0.453-5.695-1.358c-1.313-0.904-2.212-2.175-2.693-3.811
				c-0.482-1.635-0.723-3.548-0.723-5.738h6.526c0,1.285,0.08,2.365,0.241,3.241c0.16,0.876,0.452,1.533,0.876,1.972
				c0.423,0.438,1.058,0.642,1.905,0.613c0.847-0.029,1.46-0.351,1.84-0.964c0.379-0.613,0.613-1.489,0.701-2.628
				c0.087-1.14,0.131-2.482,0.131-4.03c0-1.255-0.073-2.365-0.219-3.329c-0.147-0.964-0.432-1.723-0.854-2.278
				c-0.423-0.554-1.073-0.832-1.949-0.832c-0.788,0-1.438,0.278-1.949,0.832c-0.511,0.556-0.884,1.344-1.117,2.366h-5.782
				l0.483-20.15h16.295v5.826h-10.732l-0.395,7.841c0.351-0.438,0.941-0.817,1.773-1.139c0.833-0.321,1.73-0.511,2.694-0.569
				c1.84-0.176,3.365,0.175,4.577,1.051c1.212,0.876,2.11,2.169,2.694,3.877c0.584,1.708,0.876,3.789,0.876,6.242
				c0,1.869-0.117,3.6-0.351,5.19c-0.233,1.592-0.686,2.965-1.357,4.118c-0.672,1.153-1.636,2.052-2.892,2.693
				C329.003,408.75,327.368,409.071,325.354,409.071z"/>
			<path style="fill:#263238;" d="M348.219,409.071c-2.133,0-3.898-0.438-5.301-1.314c-1.401-0.876-2.453-2.08-3.153-3.613
				c-0.701-1.533-1.052-3.308-1.052-5.322V382.92c0-2.073,0.335-3.891,1.008-5.453c0.671-1.563,1.708-2.782,3.109-3.658
				c1.402-0.876,3.198-1.314,5.389-1.314c2.16,0,3.935,0.438,5.322,1.314c1.387,0.876,2.416,2.096,3.088,3.658
				c0.671,1.563,1.008,3.38,1.008,5.453v15.901c0,2.015-0.351,3.789-1.052,5.322c-0.701,1.533-1.752,2.737-3.154,3.613
				C352.029,408.633,350.292,409.071,348.219,409.071z M348.219,403.114c0.788,0,1.357-0.248,1.708-0.745
				c0.351-0.496,0.584-1.088,0.701-1.774c0.116-0.685,0.175-1.32,0.175-1.905v-15.638c0-0.643-0.051-1.314-0.153-2.015
				c-0.103-0.701-0.328-1.307-0.679-1.818c-0.35-0.511-0.935-0.767-1.752-0.767c-0.818,0-1.409,0.256-1.774,0.767
				c-0.365,0.512-0.599,1.117-0.701,1.818c-0.103,0.7-0.153,1.372-0.153,2.015v15.638c0,0.585,0.059,1.22,0.176,1.905
				c0.116,0.687,0.364,1.278,0.744,1.774C346.89,402.866,347.459,403.114,348.219,403.114z"/>
		</g>
		<g>
			<g>
				<path style="fill:#263238;" d="M368.078,382.452c-1.294,0-2.22-0.361-2.776-1.085c-0.557-0.724-0.835-1.76-0.835-3.11v-1.043
					c0-1.378,0.272-2.407,0.815-3.089c0.542-0.682,1.475-1.023,2.797-1.023c1.321,0,2.257,0.331,2.807,0.992
					c0.55,0.66,0.824,1.68,0.824,3.058v1.147c0,1.35-0.278,2.38-0.834,3.089C370.318,382.098,369.386,382.452,368.078,382.452z
					 M368.078,380.532c0.361,0,0.626-0.098,0.793-0.292c0.167-0.195,0.278-0.47,0.334-0.825c0.056-0.355,0.083-0.754,0.083-1.199
					v-0.981c0-0.695-0.063-1.234-0.188-1.617c-0.125-0.383-0.467-0.574-1.022-0.574c-0.543,0-0.877,0.191-1.002,0.574
					c-0.125,0.383-0.189,0.922-0.189,1.617v1.002c0,0.445,0.028,0.842,0.084,1.19c0.056,0.348,0.167,0.619,0.334,0.814
					C367.473,380.435,367.73,380.532,368.078,380.532z M370.103,390.07l4.946-16.905h1.899l-4.926,16.905H370.103z M378.952,390.133
					c-1.295,0-2.217-0.361-2.766-1.085c-0.55-0.724-0.824-1.768-0.824-3.131v-1.022c0-1.378,0.268-2.411,0.803-3.1
					c0.536-0.688,1.465-1.033,2.787-1.033c1.335,0,2.274,0.334,2.817,1.002c0.542,0.668,0.813,1.69,0.813,3.068v1.127
					c0,1.363-0.278,2.399-0.835,3.109C381.191,389.778,380.26,390.133,378.952,390.133z M378.952,388.192
					c0.361,0,0.629-0.098,0.803-0.293c0.174-0.194,0.285-0.466,0.334-0.814c0.049-0.348,0.073-0.744,0.073-1.189v-1.002
					c0-0.696-0.063-1.235-0.188-1.618c-0.125-0.382-0.467-0.573-1.022-0.573c-0.543,0-0.877,0.194-1.002,0.584
					c-0.126,0.39-0.188,0.926-0.188,1.607v1.002c0,0.459,0.028,0.858,0.084,1.199c0.056,0.342,0.167,0.609,0.334,0.804
					C378.347,388.095,378.604,388.192,378.952,388.192z"/>
			</g>
			<g>
				<path style="fill:#263238;" d="M368.689,408.578c-1.036,0-1.861-0.193-2.476-0.579c-0.614-0.385-1.054-0.939-1.318-1.662
					c-0.266-0.723-0.397-1.578-0.397-2.565v-5.475c0-0.987,0.132-1.834,0.397-2.539c0.265-0.704,0.704-1.243,1.318-1.617
					c0.614-0.373,1.44-0.56,2.476-0.56c1.06,0,1.895,0.187,2.503,0.56c0.607,0.374,1.048,0.913,1.318,1.617
					c0.272,0.705,0.407,1.552,0.407,2.539v5.492c0,0.977-0.136,1.822-0.407,2.539c-0.27,0.717-0.711,1.272-1.318,1.662
					C370.583,408.382,369.748,408.578,368.689,408.578z M368.689,406.608c0.445,0,0.774-0.097,0.984-0.289
					c0.211-0.192,0.352-0.458,0.425-0.795c0.072-0.338,0.108-0.705,0.108-1.103v-6.739c0-0.409-0.036-0.777-0.108-1.102
					c-0.072-0.325-0.214-0.581-0.425-0.768c-0.21-0.186-0.539-0.28-0.984-0.28c-0.422,0-0.74,0.094-0.957,0.28
					c-0.218,0.186-0.362,0.442-0.435,0.768s-0.108,0.693-0.108,1.102v6.739c0,0.397,0.033,0.765,0.1,1.103
					c0.066,0.337,0.208,0.603,0.425,0.795C367.93,406.512,368.255,406.608,368.689,406.608z"/>
				<path style="fill:#263238;" d="M374.887,408.379v-14.636h6.017v1.843h-3.343v4.265h2.728v1.861h-2.728v6.667H374.887z"/>
				<path style="fill:#263238;" d="M382.295,408.379v-14.636h6.017v1.843h-3.343v4.265h2.728v1.861h-2.728v6.667H382.295z"/>
			</g>
		</g>
	</g>
</g>
<g id="Text_2">
	<g>
		<g>
			<path style="fill:#263238;" d="M325.529,290.452c-2.365,0-4.242-0.445-5.629-1.336c-1.388-0.891-2.388-2.147-3.001-3.768
				c-0.613-1.62-0.919-3.482-0.919-5.585v-1.271h6.745c0,0.06,0,0.213,0,0.46c0,0.249,0,0.49,0,0.724
				c0.029,1.139,0.124,2.08,0.285,2.825c0.16,0.744,0.444,1.307,0.854,1.686c0.409,0.38,0.993,0.569,1.753,0.569
				c0.788,0,1.372-0.197,1.752-0.592c0.379-0.393,0.642-0.971,0.788-1.73c0.146-0.759,0.22-1.693,0.22-2.803
				c0-1.781-0.264-3.161-0.789-4.14c-0.525-0.979-1.577-1.482-3.153-1.512c-0.03,0-0.176,0-0.438,0c-0.263,0-0.512,0-0.744,0v-4.993
				c0.175,0,0.357,0,0.547,0c0.189,0,0.357,0,0.504,0c1.577,0,2.65-0.423,3.22-1.271c0.569-0.847,0.854-2.175,0.854-3.986
				c0-1.401-0.205-2.497-0.613-3.285c-0.41-0.788-1.169-1.183-2.278-1.183c-1.11,0-1.84,0.438-2.19,1.314
				c-0.35,0.876-0.54,2-0.569,3.372c0,0.234,0,0.49,0,0.767c0,0.278,0,0.548,0,0.811h-6.745v-1.927c0-2.073,0.379-3.833,1.139-5.278
				c0.759-1.446,1.84-2.548,3.241-3.308c1.401-0.759,3.11-1.139,5.125-1.139c2.015,0,3.738,0.365,5.169,1.095
				c1.431,0.73,2.518,1.796,3.264,3.198c0.744,1.401,1.117,3.139,1.117,5.212c0,2.074-0.432,3.797-1.293,5.169
				c-0.861,1.373-1.92,2.249-3.176,2.629c0.876,0.292,1.649,0.773,2.322,1.445c0.671,0.672,1.197,1.57,1.576,2.693
				c0.38,1.125,0.57,2.52,0.57,4.184c0,2.132-0.307,4.023-0.92,5.673c-0.613,1.65-1.621,2.942-3.023,3.877
				C329.69,289.984,327.835,290.452,325.529,290.452z"/>
			<path style="fill:#263238;" d="M348.395,290.452c-2.133,0-3.898-0.438-5.301-1.314c-1.401-0.876-2.453-2.08-3.153-3.613
				c-0.701-1.533-1.052-3.308-1.052-5.322v-15.901c0-2.073,0.335-3.891,1.008-5.453c0.671-1.563,1.708-2.782,3.109-3.658
				c1.402-0.876,3.198-1.313,5.389-1.313c2.16,0,3.935,0.438,5.322,1.313c1.387,0.876,2.416,2.096,3.088,3.658
				c0.671,1.563,1.008,3.38,1.008,5.453v15.901c0,2.015-0.351,3.789-1.052,5.322c-0.701,1.533-1.752,2.737-3.154,3.613
				C352.205,290.014,350.468,290.452,348.395,290.452z M348.395,284.495c0.788,0,1.357-0.248,1.708-0.745
				c0.351-0.496,0.584-1.088,0.701-1.774c0.116-0.686,0.175-1.32,0.175-1.905v-15.638c0-0.643-0.051-1.314-0.153-2.015
				c-0.103-0.701-0.328-1.307-0.679-1.818c-0.351-0.511-0.935-0.767-1.752-0.767c-0.818,0-1.409,0.256-1.774,0.767
				c-0.365,0.512-0.599,1.117-0.701,1.818c-0.103,0.7-0.153,1.372-0.153,2.015v15.638c0,0.585,0.059,1.22,0.176,1.905
				c0.116,0.687,0.364,1.278,0.744,1.774C347.066,284.247,347.635,284.495,348.395,284.495z"/>
		</g>
		<g>
			<g>
				<path style="fill:#263238;" d="M368.078,263.833c-1.294,0-2.22-0.361-2.776-1.085c-0.557-0.724-0.835-1.76-0.835-3.11v-1.043
					c0-1.378,0.272-2.407,0.815-3.089c0.542-0.682,1.475-1.023,2.797-1.023c1.321,0,2.257,0.331,2.807,0.992
					c0.55,0.66,0.824,1.68,0.824,3.058v1.147c0,1.35-0.278,2.38-0.834,3.089C370.318,263.478,369.386,263.833,368.078,263.833z
					 M368.078,261.913c0.361,0,0.626-0.098,0.793-0.292c0.167-0.195,0.278-0.47,0.334-0.825c0.056-0.354,0.083-0.754,0.083-1.199
					v-0.982c0-0.695-0.063-1.234-0.188-1.617c-0.125-0.383-0.467-0.574-1.022-0.574c-0.543,0-0.877,0.191-1.002,0.574
					c-0.125,0.383-0.189,0.922-0.189,1.617v1.002c0,0.445,0.028,0.842,0.084,1.189c0.056,0.348,0.167,0.619,0.334,0.814
					C367.473,261.815,367.73,261.913,368.078,261.913z M370.103,271.451l4.946-16.905h1.899l-4.926,16.905H370.103z
					 M378.952,271.514c-1.295,0-2.217-0.361-2.766-1.085c-0.55-0.724-0.824-1.768-0.824-3.131v-1.023c0-1.378,0.268-2.411,0.803-3.1
					c0.536-0.689,1.465-1.033,2.787-1.033c1.335,0,2.274,0.334,2.817,1.002c0.542,0.668,0.813,1.69,0.813,3.068v1.127
					c0,1.363-0.278,2.399-0.835,3.109C381.191,271.159,380.26,271.514,378.952,271.514z M378.952,269.573
					c0.361,0,0.629-0.098,0.803-0.293c0.174-0.194,0.285-0.466,0.334-0.814c0.049-0.348,0.073-0.744,0.073-1.189v-1.002
					c0-0.696-0.063-1.235-0.188-1.618c-0.125-0.382-0.467-0.573-1.022-0.573c-0.543,0-0.877,0.194-1.002,0.584
					c-0.126,0.39-0.188,0.926-0.188,1.607v1.002c0,0.459,0.028,0.858,0.084,1.199c0.056,0.342,0.167,0.609,0.334,0.804
					C378.347,269.476,378.604,269.573,378.952,269.573z"/>
			</g>
			<g>
				<path style="fill:#263238;" d="M368.689,289.959c-1.036,0-1.861-0.193-2.476-0.579c-0.614-0.385-1.054-0.94-1.318-1.662
					c-0.266-0.723-0.397-1.578-0.397-2.565v-5.475c0-0.987,0.132-1.834,0.397-2.539c0.265-0.704,0.704-1.243,1.318-1.617
					c0.614-0.373,1.44-0.56,2.476-0.56c1.06,0,1.895,0.186,2.503,0.56c0.607,0.374,1.048,0.913,1.318,1.617
					c0.272,0.705,0.407,1.552,0.407,2.539v5.492c0,0.977-0.136,1.822-0.407,2.539c-0.27,0.717-0.711,1.271-1.318,1.662
					C370.583,289.763,369.748,289.959,368.689,289.959z M368.689,287.989c0.445,0,0.774-0.097,0.984-0.289
					c0.211-0.192,0.352-0.458,0.425-0.795c0.072-0.338,0.108-0.705,0.108-1.103v-6.739c0-0.409-0.036-0.777-0.108-1.103
					c-0.072-0.325-0.214-0.581-0.425-0.768c-0.21-0.187-0.539-0.28-0.984-0.28c-0.422,0-0.74,0.094-0.957,0.28
					c-0.218,0.187-0.362,0.442-0.435,0.768s-0.108,0.693-0.108,1.103v6.739c0,0.397,0.033,0.765,0.1,1.103
					c0.066,0.337,0.208,0.603,0.425,0.795C367.93,287.893,368.255,287.989,368.689,287.989z"/>
				<path style="fill:#263238;" d="M374.887,289.76v-14.636h6.017v1.843h-3.343v4.265h2.728v1.861h-2.728v6.667H374.887z"/>
				<path style="fill:#263238;" d="M382.295,289.76v-14.636h6.017v1.843h-3.343v4.265h2.728v1.861h-2.728v6.667H382.295z"/>
			</g>
		</g>
	</g>
</g>
<g id="Text_1">
	<g>
		<g>
			<path style="fill:#263238;" d="M316.111,195.143v-4.774l8.63-13.272c0.642-0.993,1.248-1.942,1.817-2.848
				c0.569-0.905,1.036-1.832,1.401-2.781c0.365-0.949,0.548-1.964,0.548-3.045c0-1.139-0.219-2.007-0.657-2.607
				c-0.438-0.598-1.066-0.897-1.883-0.897c-0.877,0-1.549,0.24-2.016,0.723c-0.468,0.482-0.788,1.117-0.964,1.905
				c-0.175,0.788-0.263,1.65-0.263,2.585v1.664h-6.614v-1.752c0-2.103,0.328-3.972,0.985-5.607c0.657-1.635,1.693-2.913,3.11-3.832
				c1.416-0.92,3.277-1.38,5.585-1.38c3.125,0,5.475,0.817,7.053,2.452c1.577,1.637,2.365,3.929,2.365,6.878
				c0,1.431-0.219,2.753-0.657,3.964c-0.437,1.212-1.015,2.381-1.73,3.505c-0.716,1.124-1.482,2.285-2.3,3.482l-6.833,10.294h10.557
				v5.344H316.111z"/>
			<path style="fill:#263238;" d="M348.395,195.756c-2.133,0-3.898-0.439-5.301-1.314c-1.401-0.876-2.453-2.08-3.153-3.613
				c-0.701-1.533-1.052-3.308-1.052-5.322v-15.901c0-2.073,0.335-3.891,1.008-5.453c0.671-1.563,1.708-2.782,3.109-3.658
				c1.402-0.876,3.198-1.313,5.389-1.313c2.16,0,3.935,0.438,5.322,1.313c1.387,0.876,2.416,2.096,3.088,3.658
				c0.671,1.563,1.008,3.38,1.008,5.453v15.901c0,2.015-0.351,3.789-1.052,5.322c-0.701,1.533-1.752,2.737-3.154,3.613
				C352.205,195.317,350.468,195.756,348.395,195.756z M348.395,189.799c0.788,0,1.357-0.248,1.708-0.745
				c0.351-0.496,0.584-1.088,0.701-1.774c0.116-0.686,0.175-1.32,0.175-1.905v-15.638c0-0.643-0.051-1.314-0.153-2.015
				c-0.103-0.701-0.328-1.307-0.679-1.818c-0.351-0.511-0.935-0.767-1.752-0.767c-0.818,0-1.409,0.256-1.774,0.767
				c-0.365,0.512-0.599,1.117-0.701,1.818c-0.103,0.7-0.153,1.372-0.153,2.015v15.638c0,0.585,0.059,1.22,0.176,1.905
				c0.116,0.687,0.364,1.278,0.744,1.774C347.066,189.551,347.635,189.799,348.395,189.799z"/>
		</g>
		<g>
			<g>
				<path style="fill:#263238;" d="M368.078,169.137c-1.294,0-2.22-0.361-2.776-1.085c-0.557-0.724-0.835-1.76-0.835-3.11v-1.043
					c0-1.378,0.272-2.407,0.815-3.089c0.542-0.682,1.475-1.023,2.797-1.023c1.321,0,2.257,0.331,2.807,0.992
					c0.55,0.66,0.824,1.68,0.824,3.058v1.147c0,1.35-0.278,2.38-0.834,3.089C370.318,168.782,369.386,169.137,368.078,169.137z
					 M368.078,167.217c0.361,0,0.626-0.098,0.793-0.292c0.167-0.195,0.278-0.47,0.334-0.825c0.056-0.354,0.083-0.754,0.083-1.199
					v-0.982c0-0.695-0.063-1.234-0.188-1.617c-0.125-0.383-0.467-0.574-1.022-0.574c-0.543,0-0.877,0.191-1.002,0.574
					c-0.125,0.383-0.189,0.922-0.189,1.617v1.002c0,0.445,0.028,0.842,0.084,1.189c0.056,0.348,0.167,0.619,0.334,0.814
					C367.473,167.119,367.73,167.217,368.078,167.217z M370.103,176.755l4.946-16.905h1.899l-4.926,16.905H370.103z
					 M378.952,176.817c-1.295,0-2.217-0.361-2.766-1.085c-0.55-0.724-0.824-1.768-0.824-3.131v-1.022c0-1.378,0.268-2.411,0.803-3.1
					c0.536-0.689,1.465-1.033,2.787-1.033c1.335,0,2.274,0.334,2.817,1.002c0.542,0.668,0.813,1.691,0.813,3.068v1.127
					c0,1.363-0.278,2.399-0.835,3.109C381.191,176.463,380.26,176.817,378.952,176.817z M378.952,174.877
					c0.361,0,0.629-0.098,0.803-0.293c0.174-0.194,0.285-0.466,0.334-0.814c0.049-0.348,0.073-0.744,0.073-1.189v-1.002
					c0-0.696-0.063-1.235-0.188-1.618c-0.125-0.382-0.467-0.573-1.022-0.573c-0.543,0-0.877,0.194-1.002,0.584
					c-0.126,0.39-0.188,0.926-0.188,1.607v1.002c0,0.459,0.028,0.858,0.084,1.199c0.056,0.342,0.167,0.609,0.334,0.804
					C378.347,174.779,378.604,174.877,378.952,174.877z"/>
			</g>
			<g>
				<path style="fill:#263238;" d="M368.689,195.263c-1.036,0-1.861-0.193-2.476-0.579c-0.614-0.385-1.054-0.939-1.318-1.662
					c-0.266-0.723-0.397-1.578-0.397-2.566v-5.475c0-0.987,0.132-1.834,0.397-2.539c0.265-0.704,0.704-1.243,1.318-1.617
					c0.614-0.373,1.44-0.56,2.476-0.56c1.06,0,1.895,0.187,2.503,0.56c0.607,0.374,1.048,0.913,1.318,1.617
					c0.272,0.705,0.407,1.552,0.407,2.539v5.492c0,0.977-0.136,1.822-0.407,2.539c-0.27,0.717-0.711,1.271-1.318,1.662
					C370.583,195.067,369.748,195.263,368.689,195.263z M368.689,193.294c0.445,0,0.774-0.097,0.984-0.289
					c0.211-0.192,0.352-0.458,0.425-0.795c0.072-0.338,0.108-0.705,0.108-1.103v-6.739c0-0.409-0.036-0.777-0.108-1.103
					c-0.072-0.325-0.214-0.581-0.425-0.768c-0.21-0.187-0.539-0.28-0.984-0.28c-0.422,0-0.74,0.094-0.957,0.28
					c-0.218,0.186-0.362,0.442-0.435,0.768c-0.072,0.325-0.108,0.693-0.108,1.103v6.739c0,0.397,0.033,0.765,0.1,1.103
					c0.066,0.337,0.208,0.602,0.425,0.795S368.255,193.294,368.689,193.294z"/>
				<path style="fill:#263238;" d="M374.887,195.064v-14.636h6.017v1.843h-3.343v4.265h2.728v1.861h-2.728v6.667H374.887z"/>
				<path style="fill:#263238;" d="M382.295,195.064v-14.636h6.017v1.843h-3.343v4.265h2.728v1.861h-2.728v6.667H382.295z"/>
			</g>
		</g>
	</g>
</g>
<g id="Character">
	<g>
		<g>
			<path style="fill:#FFFFFF;stroke:#263238;stroke-linecap:round;stroke-linejoin:round;stroke-miterlimit:10;" d="M164.21,311.541
				c0,0,4.163,44.129,3.33,48.292c-0.833,4.163-19.983,56.202-21.648,63.695c-1.665,7.494-2.081,10.408-2.081,10.408
				s6.263,11.067,8.685,13.099c1.319,1.107,7.496,3.149,10.713,4.164c1.63,0.515,1.392,4.047,0.936,5.695
				c-0.43,1.553-0.566,1.455-4.098,2.437c-7.493,2.081-17.069,1.665-24.979-5.412c-2.245-2.009-13.322-4.996-13.322-4.996
				s-4.163-2.914-2.081-8.742c2.081-5.828,7.91-10.824,8.326-12.905c0.416-2.082,7.494-23.73,7.077-36.219
				c-0.416-12.489,8.743-35.386,8.743-35.386l-10.824-41.631L164.21,311.541z"/>
			<path style="fill:#FFFFFF;stroke:#263238;stroke-linecap:round;stroke-linejoin:round;stroke-miterlimit:10;" d="M119.665,440.18
				c1.735-4.858,6.062-9.13,7.7-11.626c0.646,1.001,1.643,2.688,2.495,4.756c1.387,3.369,5.153,4.162,6.54,4.162
				s3.567-1.586,4.756-3.369c1.189-1.784,2.655-0.167,2.655-0.167s6.263,11.067,8.685,13.099c1.319,1.107,7.496,3.149,10.713,4.164
				c1.631,0.515,1.392,4.047,0.937,5.695c-0.43,1.553-0.566,1.455-4.098,2.437c-7.493,2.081-17.069,1.665-24.978-5.412
				c-2.245-2.009-13.322-4.996-13.322-4.996S117.583,446.008,119.665,440.18z"/>
			<path style="fill:#FFFFFF;stroke:#263238;stroke-linecap:round;stroke-linejoin:round;stroke-miterlimit:10;" d="
				M119.134,442.514c1.929,0.471,4.427,1.176,6.563,2.092c4.162,1.784,10.107,8.126,21.007,11.495
				c7.973,2.464,14.657,0.69,17.681-0.442c-0.061,0.463-0.145,0.891-0.24,1.235c-0.43,1.553-0.566,1.455-4.098,2.437
				c-7.493,2.081-17.069,1.665-24.978-5.412c-2.245-2.009-13.322-4.996-13.322-4.996S118.71,446.781,119.134,442.514z"/>
		</g>
		<path style="fill:#263238;stroke:#263238;stroke-linecap:round;stroke-linejoin:round;stroke-miterlimit:10;" d="M129.693,121.639
			c0,0,6.898-2.44,11.082,1.185c6.23,5.402-4.252,16.668-7.157,11.682c-0.001-0.002-3.167-5.436-3.167-5.436
			s-24.054-0.281-22.354-1.811C109.798,125.729,119.003,117.025,129.693,121.639z"/>
		<path style="fill:#92E3A9;stroke:#263238;stroke-linecap:round;stroke-linejoin:round;stroke-miterlimit:10;" d="M134.768,180.94
			c0,0,9.626,16.434,11.792,20.433c2.166,3.999,5.162,9.042,5.496,14.04c0.333,4.998-4.165,12.996-4.165,12.996l3.165,25.158
			l-34.821-3.665c0,0-11.752-34.54-12.662-41.486c-1.16-8.849-2.547-17.712,1.666-23.825c4.44-6.442,13.676-12.369,13.676-12.369
			L134.768,180.94z"/>
		<g>
			<path style="fill:#FFFFFF;stroke:#263238;stroke-linecap:round;stroke-linejoin:round;stroke-miterlimit:10;" d="
				M141.396,320.887c0,0-7.685,47.011-9.668,50.815c-1.286,2.468-4.409,22.121-3.104,43.018c0.792,12.665,2.021,22.179,2.021,22.179
				s15.717,9.172,17.281,10.303c1.563,1.131,11.962,2.333,12.672,4.77c0.71,2.438,0.032,6.161-1.069,6.922
				c-1.1,0.761-16.662,1.504-16.662,1.504s-11.274,0.046-12.076,0.016s-18.451-0.114-21.043-2.355
				c-2.592-2.242-1.657-5.688-0.423-9.925c1.234-4.238,3.995-12.703,4.029-14.86c0.23-14.2-6.499-32.802-6.499-48.238
				c0-6.76,4.75-20.977,4.75-20.977l-3.166-60.556L141.396,320.887z"/>
			<g>
				<path style="fill:#FFFFFF;stroke:#263238;stroke-linecap:round;stroke-linejoin:round;stroke-miterlimit:10;" d="
					M160.599,451.973c0.71,2.438,0.032,6.161-1.069,6.922c-1.1,0.761-16.662,1.504-16.662,1.504s-11.274,0.046-12.076,0.016
					s-18.451-0.114-21.043-2.355c-2.592-2.242-1.657-5.688-0.423-9.925c0.822-2.824,2.284-6.925,3.116-9.987
					c1.668,0.472,3.933,1.209,6.551,2.323c5.534,2.354,7.488,0.287,7.488,0.287l4.165-3.858c0,0,15.717,9.172,17.281,10.303
					C149.49,448.333,159.889,449.535,160.599,451.973z"/>
				<path style="fill:none;stroke:#263238;stroke-miterlimit:10;" d="M117.839,454.854c-4.854-0.889-7.628-1.866-7.628-1.866"/>
				<path style="fill:none;stroke:#263238;stroke-miterlimit:10;" d="M159.674,455.151c0,0-5.101,0.34-21.733,1.042
					c-5.765,0.243-10.866-0.067-15.069-0.577"/>
			</g>
		</g>
		<g>
			<polygon style="fill:#263238;stroke:#263238;stroke-linecap:round;stroke-linejoin:round;stroke-miterlimit:10;" points="
				155.089,275.096 164.988,313.179 141.679,316.682 			"/>
			<polygon style="fill:#92E3A9;stroke:#263238;stroke-linecap:round;stroke-linejoin:round;stroke-miterlimit:10;" points="
				165.69,309.696 166.471,316.452 139.372,320.103 138.231,314.55 			"/>
		</g>
		<g>
			<path style="fill:#263238;stroke:#263238;stroke-linecap:round;stroke-linejoin:round;stroke-miterlimit:10;" d="
				M116.234,249.901l36.541,2.158l2.839,18.452l-2.661,48.259l-50.743-1.952c0,0-1.065-25.194,0-32.291
				C103.274,277.431,116.234,249.901,116.234,249.901z"/>
			<polygon style="fill:#92E3A9;stroke:#263238;stroke-linecap:round;stroke-linejoin:round;stroke-miterlimit:10;" points="
				154.904,315.577 152.775,323.206 100.435,320.367 100.967,312.916 			"/>
		</g>
		<g>
			<path style="fill:#FFFFFF;stroke:#263238;stroke-linecap:round;stroke-linejoin:round;stroke-miterlimit:10;" d="
				M135.123,131.623c0,0,3.188,3.623,3.768,5.652c0.58,2.029,0.87,5.073,2.029,6.232c1.159,1.16,7.391,3.913,6.957,5.652
				c-0.435,1.739-3.189,4.783-3.189,4.783s0.435,10.29-0.145,11.305c-0.58,1.014-8.841,1.449-8.841,1.449l-3.159,11.395
				l-19.885-9.655l1.159-6.957l-7.288-1.99l21.889-28.879L135.123,131.623z"/>
			<polyline style="fill:none;stroke:#263238;stroke-linecap:round;stroke-linejoin:round;stroke-miterlimit:10;" points="
				119.905,158.145 122.948,157.855 124.543,161.623 			"/>
			<path style="fill:#263238;" d="M137.559,144.023c0.293,1.081,0.187,2.052-0.238,2.167c-0.425,0.115-1.007-0.668-1.301-1.75
				c-0.293-1.082-0.187-2.052,0.238-2.167C136.683,142.158,137.265,142.941,137.559,144.023z"/>
			<path style="fill:none;stroke:#263238;stroke-linecap:round;stroke-linejoin:round;stroke-miterlimit:10;" d="M133.238,140.318
				c0,0,1.16-2.174,4.203-2.029"/>
			<path style="fill:none;stroke:#263238;stroke-linecap:round;stroke-linejoin:round;stroke-miterlimit:10;" d="M136.717,153.797
				c0,0,1.014,1.739,3.913,1.449"/>
		</g>
		<g>
			<path style="fill:#FFFFFF;stroke:#263238;stroke-linecap:round;stroke-linejoin:round;stroke-miterlimit:10;" d="
				M185.165,226.739c-0.993-0.993-2.185-3.178-3.178-3.178c-0.993,0-1.391,0.795-0.993,2.185c0.397,1.391,0.397,1.391,0.397,1.391
				l-0.847,3.009l-6.354-3.077c0,0,3.101,0.866,4.69,1.263c1.589,0.397,1.984-0.27,1.984-1.263c0-0.993-6.043-3.427-7.487-3.788
				c-1.172-0.293-6.553-1.127-8.569-0.451c-1.146,0.384-6.661,3.106-6.661,3.106c-2.368,1.398-6.738,3.703-11.924,5.138
				c-7.831,2.166-21.159,1.666-21.159,1.666l3.665-41.819c-11.829-6.331-19.493,1.666-19.493,1.666v40.819
				c0,0,0.833,7.497,1.666,10.663c0.833,3.165,2.499,4.665,5.165,4.665c2.666,0,13.662-1.5,22.492-4.165
				c3.872-1.169,12.245-5.129,15.099-6.5c0.636-0.305,1.256-0.628,1.872-0.972c2.362-1.32,8.577-4.796,8.577-4.796
				s12.118,4.639,13.111,4.837c0.993,0.199,4.165-0.894,5.159-1.49c0.993-0.596,1.032-1.146,2.095-3.889
				C184.472,231.759,186.158,227.732,185.165,226.739z"/>
		</g>
		<path style="fill:#92E3A9;stroke:#263238;stroke-linecap:round;stroke-linejoin:round;stroke-miterlimit:10;" d="M106.571,187.88
			c0,0,1.092,43.975,1.092,49.408c0,5.434,2.288,11.725,4.862,12.869c2.574,1.144,43.469-9.723,43.469-9.723l-1.43-13.727
			l-13.408,2.932l-14.938,0.092l5.467-36.484c0,0,0-7.149-3.432-10.009"/>
		<path style="fill:none;stroke:#263238;stroke-linecap:round;stroke-linejoin:round;stroke-miterlimit:10;" d="M126.219,229.732
			c0,0-6.887,0.778-10.115,6.082"/>
		<path style="fill:#FFFFFF;stroke:#263238;stroke-linecap:round;stroke-linejoin:round;stroke-miterlimit:10;" d="M173.761,227.125
			c1.272,0.38,2.544,0.759,3.817,1.139c1.444,0.431,2.983,1.358,4.516,1.386c1.116,0.02,2.111-0.856,1.619-2.038
			c-0.696-1.67-4.12-2.197-5.094-2.823c-0.974-0.626-3.952-1.352-3.952-1.352l-3.479-0.348"/>
		<g>
			<g>
				
					<rect x="138.453" y="226.529" transform="matrix(0.9197 -0.3926 0.3926 0.9197 -83.7505 74.6064)" style="fill:#263238;stroke:#263238;stroke-miterlimit:10;" width="4.132" height="31.047"/>
				
					<rect x="121.572" y="226.529" transform="matrix(-0.9197 -0.3926 0.3926 -0.9197 142.3143 513.2117)" style="fill:#263238;stroke:#263238;stroke-miterlimit:10;" width="4.132" height="31.047"/>
			</g>
			<path style="fill:#92E3A9;stroke:#263238;stroke-miterlimit:10;" d="M89.578,264.837l7.732,32.317
				c0.45,1.882,2.132,3.208,4.067,3.208h61.402c1.935,0,3.617-1.327,4.067-3.208l7.732-32.317H89.578z M169.133,267.113
				l-3.367,14.07h-2.814l3.006-14.07H169.133z M161.394,267.113l-2.601,14.07h-4.817l2.132-14.07H161.394z M151.542,267.113
				l-1.727,14.07h-4.817l1.258-14.07H151.542z M141.69,267.113l-0.853,14.07h-4.234l0.441-14.07H141.69z M126.874,267.113
				l0.462,14.07h-4.016l-0.853-14.07H126.874z M117.902,267.113l1.258,14.07h-4.817l-1.727-14.07H117.902z M108.05,267.113
				l2.132,14.07h-4.817l-2.601-14.07H108.05z M98.198,267.113l3.006,14.07h-2.814l-3.367-14.07H98.198z M101.766,295.288
				l-2.339-9.776h2.703l2.678,12.536C103.34,297.844,102.118,296.763,101.766,295.288z M108.49,298.086l-2.325-12.574h4.673
				l1.905,12.574H108.49z M116.417,298.086l-1.543-12.574h4.673l1.124,12.574H116.417z M124.345,298.086l-0.762-12.574h3.895
				l0.413,12.574H124.345z M136.074,298.086l0.394-12.574h4.108l-0.762,12.574H136.074z M143.486,298.086l1.124-12.574h4.673
				l-1.543,12.574H143.486z M151.414,298.086l1.905-12.574h4.673l-2.324,12.574H151.414z M162.392,295.288
				c-0.353,1.475-1.574,2.555-3.043,2.76l2.679-12.536h2.703L162.392,295.288z"/>
			<path style="fill:#92E3A9;stroke:#263238;stroke-miterlimit:10;" d="M172.914,265.094H91.243c-2.49,0-4.508-2.018-4.508-4.508
				l0,0c0-2.49,2.018-4.508,4.508-4.508h81.671c2.489,0,4.508,2.018,4.508,4.508l0,0
				C177.422,263.076,175.404,265.094,172.914,265.094z"/>
			<rect x="83.671" y="254.791" style="fill:#92E3A9;stroke:#263238;stroke-miterlimit:10;" width="96.816" height="2.061"/>
			<path style="fill:#263238;stroke:#263238;stroke-miterlimit:10;" d="M149.289,259.591c0-1.121-0.909-2.029-2.029-2.029
				c-1.121,0-2.029,0.909-2.029,2.029c0,1.121,0.909,2.029,2.029,2.029C148.381,261.62,149.289,260.712,149.289,259.591z"/>
			<circle style="fill:#263238;stroke:#263238;stroke-miterlimit:10;" cx="116.82" cy="259.591" r="2.029"/>
		</g>
		<path style="fill:#92E3A9;stroke:#263238;stroke-linecap:round;stroke-linejoin:round;stroke-miterlimit:10;" d="M109.379,176.089
			c0,0,12.063-0.504,16.833,4.266c2.916,2.917,17.485,14.609,17.485,14.609s-5.434-11.439-11.153-16.873
			c-5.72-5.434-13.441-8.294-15.157-8.008C115.671,170.369,109.379,176.089,109.379,176.089z"/>
		<path style="fill:#263238;stroke:#263238;stroke-linecap:round;stroke-linejoin:round;stroke-miterlimit:10;" d="M134.927,126.437
			c-0.374-0.738-3.023-1.947-3.489-2.617c-2.106-3.027-7.736-2.632-11.206-3.88c-7.374-2.652-17.396,4.621-20.382,11.761
			c-1.477,3.531-0.351,5.289-0.978,9.064c-0.18,1.083-0.395,2.207-1.056,3.083c-1.052,1.394-2.922,1.802-4.536,2.47
			c-3.653,1.514-5.425,1.798-6.286,5.657c-0.861,3.859,0.267,8.108,2.928,11.031c-0.537-0.575-5.16,4.572-5.568,5.013
			c-3.231,3.489-5.613,7.209-4.529,12.179c1.567,7.185,8.327,12.507,14.452,15.828c1.962,1.064,4.095,1.949,6.327,1.98
			c2.232,0.032,4.583-0.938,5.711-2.863c1.694-2.89,0.164-6.559,0.511-9.891c0.521-5.002,5.076-8.456,9.2-11.334
			c4.124-2.878,9.7-2.766,9.959-7.789c0.192-3.715-1.609-9.757-3.271-13.085c-0.341-0.682-0.669-1.432-0.532-2.182
			c0.119-0.652,0.571-1.189,1.029-1.668c3.453-3.613,6.416-9.376,8.226-14.033C132.727,131.842,136.555,129.656,134.927,126.437z"/>
	</g>
</g>
<g id="Awning">
	<g>
		<polygon style="fill:#92E3A9;stroke:#263238;stroke-linecap:round;stroke-linejoin:round;stroke-miterlimit:10;" points="
			200.738,115.638 187.408,115.638 220.561,80.606 233.891,80.606 		"/>
		<polygon style="fill:#FFFFFF;stroke:#263238;stroke-linecap:round;stroke-linejoin:round;stroke-miterlimit:10;" points="
			214.068,115.638 200.738,115.638 233.891,80.606 247.221,80.606 		"/>
		<polygon style="fill:#92E3A9;stroke:#263238;stroke-linecap:round;stroke-linejoin:round;stroke-miterlimit:10;" points="
			227.398,115.638 214.068,115.638 247.221,80.606 260.551,80.606 		"/>
		<polygon style="fill:#FFFFFF;stroke:#263238;stroke-linecap:round;stroke-linejoin:round;stroke-miterlimit:10;" points="
			240.729,115.638 227.398,115.638 260.551,80.606 273.881,80.606 		"/>
		<polygon style="fill:#92E3A9;stroke:#263238;stroke-linecap:round;stroke-linejoin:round;stroke-miterlimit:10;" points="
			254.059,115.638 240.729,115.638 273.881,80.606 287.212,80.606 		"/>
		<polygon style="fill:#FFFFFF;stroke:#263238;stroke-linecap:round;stroke-linejoin:round;stroke-miterlimit:10;" points="
			267.389,115.638 254.059,115.638 287.212,80.606 300.542,80.606 		"/>
		<polygon style="fill:#92E3A9;stroke:#263238;stroke-linecap:round;stroke-linejoin:round;stroke-miterlimit:10;" points="
			280.719,115.638 267.389,115.638 300.542,80.606 313.872,80.606 		"/>
		<polygon style="fill:#FFFFFF;stroke:#263238;stroke-linecap:round;stroke-linejoin:round;stroke-miterlimit:10;" points="
			294.049,115.638 280.719,115.638 313.872,80.606 327.202,80.606 		"/>
		<polygon style="fill:#92E3A9;stroke:#263238;stroke-linecap:round;stroke-linejoin:round;stroke-miterlimit:10;" points="
			307.38,115.638 294.049,115.638 327.202,80.606 340.532,80.606 		"/>
		<polygon style="fill:#FFFFFF;stroke:#263238;stroke-linecap:round;stroke-linejoin:round;stroke-miterlimit:10;" points="
			320.71,115.638 307.38,115.638 340.532,80.606 353.863,80.606 		"/>
		<polygon style="fill:#92E3A9;stroke:#263238;stroke-linecap:round;stroke-linejoin:round;stroke-miterlimit:10;" points="
			334.04,115.638 320.71,115.638 353.863,80.606 367.193,80.606 		"/>
		<polygon style="fill:#FFFFFF;stroke:#263238;stroke-linecap:round;stroke-linejoin:round;stroke-miterlimit:10;" points="
			347.37,115.638 334.04,115.638 367.193,80.606 380.523,80.606 		"/>
		<polygon style="fill:#92E3A9;stroke:#263238;stroke-linecap:round;stroke-linejoin:round;stroke-miterlimit:10;" points="
			360.701,115.638 347.37,115.638 380.523,80.606 393.853,80.606 		"/>
		<path style="fill:#92E3A9;stroke:#263238;stroke-linecap:round;stroke-linejoin:round;stroke-miterlimit:10;" d="M194.809,128.083
			h-1.472c-3.274,0-5.929-2.655-5.929-5.929v-6.493h13.33v6.493C200.738,125.428,198.083,128.083,194.809,128.083z"/>
		<path style="fill:#FFFFFF;stroke:#263238;stroke-linecap:round;stroke-linejoin:round;stroke-miterlimit:10;" d="M208.139,128.083
			h-1.472c-3.274,0-5.929-2.655-5.929-5.929v-6.493h13.33v6.493C214.068,125.428,211.414,128.083,208.139,128.083z"/>
		<path style="fill:#92E3A9;stroke:#263238;stroke-linecap:round;stroke-linejoin:round;stroke-miterlimit:10;" d="M221.469,128.083
			h-1.472c-3.274,0-5.929-2.655-5.929-5.929v-6.493h13.33v6.493C227.398,125.428,224.744,128.083,221.469,128.083z"/>
		<path style="fill:#FFFFFF;stroke:#263238;stroke-linecap:round;stroke-linejoin:round;stroke-miterlimit:10;" d="M234.799,128.083
			h-1.472c-3.275,0-5.929-2.655-5.929-5.929v-6.493h13.33v6.493C240.729,125.428,238.074,128.083,234.799,128.083z"/>
		<path style="fill:#92E3A9;stroke:#263238;stroke-linecap:round;stroke-linejoin:round;stroke-miterlimit:10;" d="M248.13,128.083
			h-1.472c-3.275,0-5.929-2.655-5.929-5.929v-6.493h13.33v6.493C254.059,125.428,251.404,128.083,248.13,128.083z"/>
		<path style="fill:#FFFFFF;stroke:#263238;stroke-linecap:round;stroke-linejoin:round;stroke-miterlimit:10;" d="M261.46,128.083
			h-1.472c-3.275,0-5.929-2.655-5.929-5.929v-6.493h13.33v6.493C267.389,125.428,264.734,128.083,261.46,128.083z"/>
		<path style="fill:#92E3A9;stroke:#263238;stroke-linecap:round;stroke-linejoin:round;stroke-miterlimit:10;" d="M274.79,128.083
			h-1.472c-3.275,0-5.929-2.655-5.929-5.929v-6.493h13.33v6.493C280.719,125.428,278.065,128.083,274.79,128.083z"/>
		<path style="fill:#FFFFFF;stroke:#263238;stroke-linecap:round;stroke-linejoin:round;stroke-miterlimit:10;" d="M288.12,128.083
			h-1.472c-3.275,0-5.929-2.655-5.929-5.929v-6.493h13.33v6.493C294.049,125.428,291.395,128.083,288.12,128.083z"/>
		<path style="fill:#92E3A9;stroke:#263238;stroke-linecap:round;stroke-linejoin:round;stroke-miterlimit:10;" d="M301.451,128.083
			h-1.472c-3.275,0-5.929-2.655-5.929-5.929v-6.493h13.33v6.493C307.38,125.428,304.725,128.083,301.451,128.083z"/>
		<path style="fill:#92E3A9;stroke:#263238;stroke-linecap:round;stroke-linejoin:round;stroke-miterlimit:10;" d="M314.781,128.083
			h-1.472c-3.275,0-5.929-2.655-5.929-5.929v-6.493h13.33v6.493C320.71,125.428,318.055,128.083,314.781,128.083z"/>
		<path style="fill:#92E3A9;stroke:#263238;stroke-linecap:round;stroke-linejoin:round;stroke-miterlimit:10;" d="M328.111,128.083
			h-1.472c-3.274,0-5.929-2.655-5.929-5.929v-6.493h13.33v6.493C334.04,125.428,331.385,128.083,328.111,128.083z"/>
		<path style="fill:#FFFFFF;stroke:#263238;stroke-linecap:round;stroke-linejoin:round;stroke-miterlimit:10;" d="M341.441,128.083
			h-1.472c-3.275,0-5.929-2.655-5.929-5.929v-6.493h13.33v6.493C347.37,125.428,344.716,128.083,341.441,128.083z"/>
		<path style="fill:#92E3A9;stroke:#263238;stroke-linecap:round;stroke-linejoin:round;stroke-miterlimit:10;" d="M354.771,128.083
			h-1.472c-3.275,0-5.929-2.655-5.929-5.929v-6.493h13.33v6.493C360.701,125.428,358.046,128.083,354.771,128.083z"/>
	</g>
</g>
</svg>
